<svg id="map" class="" data-name="Layer 1" xmlns="http://www.w3.org/2000/svg" width="1009.45" height="651.83" viewBox="0 0 1009.45 651.83" class="worldMap">
  <g class="continent" data-name="caribbean" id="caribbean">
    <path class="country" stroke-width="0.5" id="BS" data-index="1" d="M258.4,395.61l-.7.1-.7-1.8-1.1-.9.6-2,.8.1,1,2.5Zm-.8-8.7-3.1.5-.2-1.1,1.3-.2,1.8.1Zm2.3,0-.5,2.2-.5-.4v-1.6l-1.3-1.2v-.4Z" transform="translate(0 0)" style="fill: #c4c4c4;stroke: rgba(9,120,136,.5);"/>
    <path stroke-width="0.5" id="CU" d="M245.1,397.31l2.4.2h2.2l2.6,1,1.1,1.1,2.6-.3,1,.7,2.4,1.9,1.7,1.4h.9l1.7.6-.2.8,2.1.1,2.1,1.2-.3.7-1.9.4-1.9.1-1.9-.2-4,.3,1.9-1.7-1.1-.8-1.8-.2-1-.9L255,402l-1.6.1-2.6-.8-.8-.6-3.7-.5-1-.6,1.1-.8-2.8-.1-2,1.6h-1.2l-.4.7-1.4.3-1.2-.3,1.5-.9.6-1.1,1.3-.7,1.4-.6,2.1-.3Z" transform="translate(0 0)" style="fill: #e3e3e3;stroke: rgba(9,120,136,.5);"/>
    <path stroke-width="0.5" id="DO" d="M274.7,407.81l.4-.5h2.2l1.7.8.7-.1.5,1,1.5-.1-.1.9,1.2.1,1.4,1.1-1,1.2-1.3-.6-1.3.1-.9-.1-.5.5-1.1.2-.4-.7-.9.4-1.1,2-.7-.5-.1-.8.1-.8-.7-.9.7-.5.2-1.1Z" transform="translate(0 0)" style="fill: #e3e3e3;stroke: rgba(9,120,136,.5);"/>
    <path class="country" stroke-width="0.5" id="HT" data-index="2" d="M270.5,407.21l1.7.1,2.4.5.2,1.6-.2,1.1-.7.5.7.9-.1.8-1.9-.5-1.1.2-1.7-.2-1.3.5-1.5-.9.2-1,2.6.4,2.1.2,1-.7-1.3-1.3v-1.1l-1.8-.5Z" transform="translate(0 0)" style="fill: #c4c4c4;stroke: rgba(9,120,136,.5);"/>
    <path stroke-width="0.5" id="JM" d="M258.3,411.41l1.9.3,1.5.7.5.8h-2l-.9.5-1.6-.5-1.6-1.1.3-.7,1.2-.2Z" transform="translate(0 0)" style="fill: #e3e3e3;stroke: rgba(9,120,136,.5);"/>
    <path stroke-width="0.5" id="PR" d="M289.9,411.31l1.4.3.5.6-.7.7H289l-1.6.1-.2-1.2.4-.4Z" transform="translate(0 0)" style="fill: #e3e3e3;stroke: rgba(9,120,136,.5);"/>
    <path class="country" stroke-width="0.5" id="TT" data-index="3" d="M302.8,433.61l1.6-.4.6.1-.1,2.1-2.3.3-.5-.2.8-.8Z" transform="translate(0 0)" style="fill: #c4c4c4;stroke: rgba(9,120,136,.5);"/>
  </g>
  <g class="continent" id="europe">
    <path stroke-width="0.5" id="IS" d="M435.1,212.81l-.6,4.5,3.2,4.6-3.6,5-8.1,4.4-2.4,1.2-3.7-.9-7.8-2,2.8-2.8-6.1-3.2,5-1.3-.1-2-5.9-1.6,1.9-4.5,4.2-1,4.4,4.7,4.3-3.8,3.5,2,4.6-3.7Z" transform="translate(0 0)" style="fill: #e3e3e3;stroke: rgba(9,120,136,.5);"/>
    <path stroke-width="0.5" id="SJ" d="M545.1,104.91l-6.3,5.4-5-3,1.9-3.4-1.7-4.3,5.8-2.8,1.1,5.2Zm-18.2-26.7,9.2,11.3-7.1,5.7-1.6,10.1-2.5,2.5-1.3,10.5-3.4.5-6-7.6,2.5-4.6-4.2-3.9L507,90.91l-2.2-11.8,7.6-5.7,1.5,5.6,4-.2,1.1-5.4,4.1-.6Zm20.2-11.5,5.5,5.8L548.4,81l-8.1,1.8L532,80.2l-.5-4.3-4-.3-3.1-7.5,8.7-4.7,4.1,4.1,2.8-5.1Z" transform="translate(0 0)" style="fill: #e3e3e3;stroke: rgba(9,120,136,.5);"/>
    <path stroke-width="0.5" id="AL" d="M533.5,335.11l-.3,1.3.4,1.6,1.2.9-.1,1-.9.5-.2,1.2-1.3,1.8-.5-.2-.1-.8-1.6-1.2-.2-1.8.2-2.5.4-1.2-.5-.6-.2-1.2L531,332l.2.7.8-.3.6,1,.7.4Z" transform="translate(0 0)" style="fill: #e3e3e3;stroke: rgba(9,120,136,.5);"/>
    <path stroke-width="0.5" id="AT" d="M523.4,310.31l-.2,1.7h-1.6l.5.9-.9,2.6-.5.7-2.5.1-1.4.9-2.3-.3-4-1.1-.6-1.4-2.8.7-.3.8-1.7-.6-1.4-.1-1.3-.7.4-1-.1-.7.9-.2,1.4,1.1.4-1.1,2.5.2,2-.7,1.3.1.9.8.3-.7-.4-2.7,1-.5,1-1.9,2.1,1.4,1.6-1.7,1-.3,2.2,1.3,1.3-.2,1.3.8-.2.5Z" transform="translate(0 0)" style="fill: #e3e3e3;stroke: rgba(9,120,136,.5);"/>
    <path stroke-width="0.5" id="BA" d="M529,323.51h1l-.7,1.7,1.4,1.5-.4,1.8-.7.2-.5.4-.9.9-.4,2.1-2.5-1.4-1.1-1.6-1.1-.8-1.3-1.5-.6-1.2-1.4-1.8.6-1.6,1,.9.6-.8,1.3-.1,2.4.7,1.9-.1Z" transform="translate(0 0)" style="fill: #e3e3e3;stroke: rgba(9,120,136,.5);"/>
    <path stroke-width="0.5" id="BE" d="M485,296.31l2.1.4,2.6-.9,1.8,2,1.5,1-.3,3-.7.2-.3,2.4-2.5-2-1.4.3-2-2.1-1.3-1.8-1.3-.1-.4-1.6Z" transform="translate(0 0)" style="fill: #e3e3e3;stroke: rgba(9,120,136,.5);"/>
    <path stroke-width="0.5" id="BG" d="M539.3,326l.8,1.6,1.1-.3,2.2.6,4.1.2,1.4-1,3.3-.9,2,1.4,1.7.4-1.5,1.6-1,2.7.9,2.2-2.4-.5-2.9,1.2v1.9l-2.5.4-2-1.3-2.2,1-2.1-.1-.2-2.5-1.4-1.2.5-.5-.3-.4.5-1.2,1.1-1.2-1.4-1.7-.2-1.4Z" transform="translate(0 0)" style="fill: #e3e3e3;stroke: rgba(9,120,136,.5);"/>
    <path stroke-width="0.5" id="BY" d="M541.6,284.51h2.7l3-1.8.7-2.7,2.3-1.6-.3-2.2,1.7-.8,3-1.9,3,1.3.4,1.2,1.5-.6,2.7,1.2.3,2.3-.6,1.3,1.8,3.1,1.1.9-.2.9,1.9.8.8,1.2-1.1,1-2.3-.2-.5.5.7,1.5.7,2.9-2.4.3-.9,1-.2,2.3-1.1-.4-2.5.2-.7-1-1,.8-1-.6-2.2-.1-3.1-1.1-2.8-.4-2.2.1-1.5,1.2-1.3.2v-2l-.9-2.1,1.7-.9v-1.9l-.8-1.8Z" transform="translate(0 0)" style="fill: #e3e3e3;stroke: rgba(9,120,136,.5);"/>
    <path stroke-width="0.5" id="CH" d="M502.6,312.71l.1.7-.4,1,1.3.7,1.4.1-.2,1.7-1.2.7-2.1-.5-.6,1.6-1.3.1-.5-.6-1.6,1.4-1.4.2-1.2-.9-1-1.8-1.3.6v-1.8l2.1-2.3-.1-1.1,1.3.4.8-.7h2.4l.6-.9Z" transform="translate(0 0)" style="fill: #e3e3e3;stroke: rgba(9,120,136,.5);"/>
    <path stroke-width="0.5" id="CZ" d="M523.3,308.31l-1.3-.8-1.3.2-2.2-1.3-1,.3-1.6,1.7-2.1-1.4-1.6-1.8-1.4-1-.3-1.8-.5-1.3,2-.9,1-1.1,2-.9.7-.8.7.5,1.2-.5,1.3,1.4,2.1.4-.2,1.2,1.5.9.4-1.1,1.9.5.3,1.4,2.1.3,1.3,2.1h-.8l-.4.8-.6.2-.2,1-.5.2-.1.4-1,.4-1.2-.1Z" transform="translate(0 0)" style="fill: #e3e3e3;stroke: rgba(9,120,136,.5);"/>
    <path class="country" stroke-width="0.5" id="DE" data-index="1" d="M503.6,279.31v1.9l2.8,1.1V284l2.9-.9,1.6-1.3,3.2,1.9,1.3,1.5.7,2.4-.8,1.2,1,1.6.7,2.4-.2,1.6,1.1,2.9-1.2.5-.7-.5-.7.8-2,.9-1,1.1-2,.9.5,1.3.3,1.8,1.4,1,1.6,1.8-1,1.9-1,.5.4,2.7-.3.7-.9-.8-1.3-.1-2,.7-2.5-.2-.4,1.1-1.4-1.1-.9.2-3-1.3-.6.9h-2.4l.4-3,1.4-2.9-4-.8-1.3-1.1.2-1.9-.6-1,.3-3-.5-4.7h1.7l.7-1.7.7-4.2-.5-1.6.6-1,2.3-.3.5,1,1.9-2.3-.6-1.8-.1-2.8,2.1.6Z" transform="translate(0 0)" style="fill: #c4c4c4;stroke: rgba(9,120,136,.5);"/>
    <path stroke-width="0.5" id="DK" d="M511.3,276.21l-1.7,4-2.9-2.8-.4-2,4.1-1.7Zm-4.9-4.2-.7,1.9-.8-.5-2,3.6.8,2.4-1.8.7-2.1-.6-1.1-2.7-.1-5.1.5-1.4.8-1.5,2.5-.3,1-1.4,2.3-1.5-.1,2.7-.8,1.7.3,1.4Z" transform="translate(0 0)" style="fill: #e3e3e3;stroke: rgba(9,120,136,.5);"/>
    <path stroke-width="0.5" id="EE" d="M543.9,265.11l.3-3.1-1,.7-1.8-1.9-.2-3.1,3.5-1.5,3.5-.8,3,.9,2.9-.2.4,1-2,3.1.8,5-1.2,1.7h-2.3l-2.4-1.9-1.2-.6Z" transform="translate(0 0)" style="fill: #e3e3e3;stroke: rgba(9,120,136,.5);"/>
    <path stroke-width="0.5" id="ES" d="M450.4,335l.1-2.7-1.1-1.7,4-2.8,3.4.7h3.8l3,.7,2.3-.2,4.5.1,1.1,1.5,5.2,1.7,1-.8,3.2,1.7,3.2-.5.1,2.2-2.7,2.5-3.6.8-.2,1.2-1.7,2-1.1,3,1.1,2.1-1.6,1.6-.6,2.3-2.1.7-2,2.7-3.6.1-2.7-.1-1.8,1.2-1.1,1.3-1.4-.3-1-1.2-.8-2-2.6-.5-.2-1.2,1-1.3.4-1-1-1.1.8-2.4-1.1-2.2,1.2-.3.1-1.7.5-.5v-2.9l1.3-1-.8-1.9-1.6-.1-.5.5h-1.6l-.7-1.8-1.1.5Z" transform="translate(0 0)" style="fill: #e3e3e3;stroke: rgba(9,120,136,.5);"/>
    <path stroke-width="0.5" id="FI" d="M555.9,193.51l-.4,5.4,4.3,5-2.6,5.5,3.3,8-1.9,5.8,2.5,4.9-1.2,4.1,4.2,4.3-1.1,3.1-2.6,3.4-6,7.4-5.1.4-4.9,2.1-4.6,1.2-1.6-3.1-2.7-1.9.6-5.7-1.4-5.4,1.3-3.6,2.5-3.9,6.4-7,1.9-1.4-.3-2.8-3.9-3.2-.9-2.7-.1-11.1-4.4-5.1-3.7-3.8,1.7-2.1,3.1,4.1,3.7-.4,3,1.9,2.7-3.4,1.4-5.9,4.4-2.8,3.6,3.3Z" transform="translate(0 0)" style="fill: #e3e3e3;stroke: rgba(9,120,136,.5);"/>
    <path class="country" stroke-width="0.5" id="FR" data-index="2" d="M502.6,333.91l-.9,2.9-1.3-.8-.6-2.5.6-1.4,1.8-1.5Zm-16.8-33.3,2,2.1,1.4-.3,2.5,2,.6.4.8-.1,1.3,1.1,4,.8-1.4,2.9-.4,3-.8.7-1.3-.4.1,1-2,2.3v1.8l1.3-.6,1,1.8-.1,1.1.8,1.5-1,1.2.7,3,1.5.5-.3,1.7-2.5,2.2-5.5-1-4.1,1.2-.3,2.3-3.2.5-3.1-1.7-1,.8-5.2-1.7-1.1-1.5,1.5-2.3.5-7.9-2.9-4.3-2.1-2.1-4.3-1.6-.3-3.1,3.6-.9,4.7,1.1-.9-4.8,2.6,1.9,6.5-3.4.8-3.6,2.5-.9.4,1.6,1.3.1Z" transform="translate(0 0)" style="fill: #c4c4c4;stroke: rgba(9,120,136,.5);"/>
    <path class="country" stroke-width="0.5" id="GB" data-index="3" d="M459.9,281.41l-1.5,3.3-2.1-1-1.7.1.6-2.6-.6-2.6,2.4-.2Zm7.4-20.8-3,5.7,2.9-.7h3.1l-.7,4.2-2.5,4.5,2.9.3.2.5,2.5,5.8,1.9.8,1.7,5.4.8,1.8,3.4.9-.3,2.9-1.4,1.3,1.1,2.3-2.5,2.3h-3.8l-4.8,1.2-1.3-.9-1.9,2.1-2.6-.5-2,1.7-1.5-.9,4.1-4.6,2.5-1h0l-4.4-.8-.8-1.8,2.9-1.4-1.5-2.5.5-3.1,4.2.4h0l.4-2.7-1.9-3v-.1l-3.4-.9-.7-1.3,1-2.2-.9-1.4-1.5,2.3-.2-4.8-1.4-2.6,1-5.4,2.2-4.3,2.2.4Z" transform="translate(0 0)" style="fill: #c4c4c4;stroke: rgba(9,120,136,.5);"/>
    <path stroke-width="0.5" id="GR" d="M542.2,357.11l1.5,1.2,2.2-.2,2.1.2-.1.6,1.5-.4-.3,1-4,.3v-.6l-3.4-.7Zm8.1-20.9-.9,2.3-.7.4-1.7-.1-1.5-.4-3.4,1,1.9,2.1-1.4.6H541l-1.5-1.9-.5.8.6,2.2,1.4,1.7-1.1.8,1.6,1.6,1.4,1v2l-1.4-1.1-1,.2.8,1.8-.8.2-1-.7,1.2,4h-.6l-.5-1.2H539l-.3,1.3-.5-.3.1-.7-.6-1h-.6l.1.8-.2.3-.6-.5-.4-1,.5-.6-.4-.7-.4-.4-.2-.3-.5-.9.6-.5.4-.5.6.1.2-.4.6-.2.7.5.5.2.4-.6-.9-.1-.6-.2-1.2.3h-1.2l-1.1-1.6-.2-.2.2-.6-1.4-1.1-.2-1,1.3-1.8.2-1.2.9-.5.1-1,1.8-.3,1.1-.8,1.5.1.5-.6.5-.1,2.1.1,2.2-1,2,1.3,2.5-.4v-1.9Z" transform="translate(0 0)" style="fill: #e3e3e3;stroke: rgba(9,120,136,.5);"/>
    <path stroke-width="0.5" id="HR" d="M528.5,319.31l.7,1.6.9,1.1-1.1,1.5-1.3-.9-1.9.1-2.4-.7-1.3.1-.6.8-1-.9-.6,1.6,1.4,1.8.6,1.2,1.3,1.5,1.1.8,1.1,1.6,2.5,1.4-.3.6-2.6-1.4-1.6-1.4-2.6-1.1-2.4-2.9.6-.3-1.3-1.6-.1-1.3-1.8-.6-.9,1.7-.8-1.3.1-1.4.1-.1,1.9.1.5-.7,1,.6,1.1.1v-1.1l1-.4.3-1.6,2.2-1.1.9.5,2.1,1.7,2.3.8Z" transform="translate(0 0)" style="fill: #e3e3e3;stroke: rgba(9,120,136,.5);"/>
    <path stroke-width="0.5" id="HU" d="M521.2,315.51l.9-2.6-.5-.9h1.6l.2-1.7,1.4,1.1,1,.5,2.4-.5.2-.8,1.1-.1,1.4-.6.3.3,1.3-.5.7-1,.9-.2,3,1.3.6-.4,1.5,1.1.2,1.1-1.7.9-1.3,2.8-1.7,2.8-2.2.3-1.8-.2-2.2,1-1,.6-2.3-.8-2.1-1.7-.9-.5-.5-1.4Z" transform="translate(0 0)" style="fill: #e3e3e3;stroke: rgba(9,120,136,.5);"/>
    <path stroke-width="0.5" id="IE" d="M458.4,284.71l.5,3.4-2.1,4.1-5,2.7-4-.7,2.3-4.8-1.5-4.8,3.8-3.8,2.1-2.3.6,2.6-.6,2.6,1.7-.1Z" transform="translate(0 0)" style="fill: #e3e3e3;stroke: rgba(9,120,136,.5);"/>
    <path stroke-width="0.5" id="IT" d="M519.3,348.31l-1,2.8.4,1.1-.6,1.8-2.1-1.3-1.4-.4-3.9-1.8.4-1.8,3.3.3,2.9-.4Zm-17.7-10.8,1.7,2.6-.4,4.8-1.3-.2-1.1,1.2-1.1-1-.1-4.4-.6-2.1,1.5.2Zm8.9-21.6,4,1-.3,2,.7,1.7-2.2-.6-2.3,1.4.2,2-.3,1.1.9,2,2.6,2,1.4,3.2,3.1,3h2.2l.7.8-.8.7,2.5,1.4,2.1,1.1,2.4,1.9.3.7-.5,1.3-1.6-1.7-2.4-.6-1.2,2.4,2,1.3-.3,1.9-1.2.2-1.5,3.1-1.2.3v-1.1l.6-1.9.6-.8-1.1-2.1-.9-1.8-1.2-.5-.8-1.6-1.8-.7-1.2-1.5-2.1-.2-2.2-1.7-2.6-2.5-1.9-2.2-.9-3.8-1.4-.5-2.3-1.3-1.3.5-1.6,1.8-1.2.3.3-1.7-1.5-.5-.7-3,1-1.2-.8-1.5.1-1.1,1.2.9,1.4-.2,1.6-1.4.5.6,1.3-.1.6-1.6,2.1.5,1.2-.7.2-1.7,1.7.6.3-.8,2.8-.7Z" transform="translate(0 0)" style="fill: #e3e3e3;stroke: rgba(9,120,136,.5);"/>
    <path stroke-width="0.5" id="XK" d="M534,334.31l-.1.8h-.4l-.2-1.4-.7-.4-.6-1,.5-.9.7-.3.4-1.3.5-.2.4.5.5.2.4.6.5.2.5.7h.4l-.3.9-.3.5.1.3-.6.1Z" transform="translate(0 0)" style="fill: #e3e3e3;stroke: rgba(9,120,136,.5);"/>
    <path stroke-width="0.5" id="LT" d="M539.5,282.51l-.2-1.2.3-1.3-1.2-.8-2.9-.9-.6-4.2,3.2-1.5,4.7.3,2.8-.5.4,1,1.5.3,2.7,2.4.3,2.2-2.3,1.6-.7,2.7-3,1.8h-2.7l-.7-1.5Z" transform="translate(0 0)" style="fill: #e3e3e3;stroke: rgba(9,120,136,.5);"/>
    <path stroke-width="0.5" id="LU" d="M492.7,301.71l.6,1-.2,1.9-.8.1-.6-.4.3-2.4Z" transform="translate(0 0)" style="fill: #e3e3e3;stroke: rgba(9,120,136,.5);"/>
    <path stroke-width="0.5" id="LV" d="M534.8,274.21l.1-3.8,1.4-3.2,2.6-1.8,2.2,3.9,2.2-.1.5-4,2.4-.9,1.2.6,2.4,1.9h2.3l1.3,1.2.2,2.5.9,3-3,1.9-1.7.8-2.7-2.4-1.5-.3-.4-1-2.8.5-4.7-.3Z" transform="translate(0 0)" style="fill: #e3e3e3;stroke: rgba(9,120,136,.5);"/>
    <path stroke-width="0.5" id="MD" d="M550.4,309.91l.7-.6,1.9-.4,2.1,1.3,1.2.2,1.3,1.1-.2,1.4,1,.7.4,1.7,1,1-.2.6.5.4-.7.3-1.9-.2-.3-.6-.6.3.2.7-.8,1.3-.5,1.4-.7.4-.5-1.8.3-1.7-.1-1.8-1.6-2.4-.9-1.8-.9-1.2Z" transform="translate(0 0)" style="fill: #e3e3e3;stroke: rgba(9,120,136,.5);"/>
    <path stroke-width="0.5" id="ME" d="M531.3,332.61l-.2-.7-1.2,1.9.2,1.2-.6-.3-.8-1.2-1.2-.8.3-.6.4-2.1.9-.9.5-.4.7.7.4.5.9.4,1.1.8-.2.3-.5.9Z" transform="translate(0 0)" style="fill: #e3e3e3;stroke: rgba(9,120,136,.5);"/>
    <path stroke-width="0.5" id="MK" d="M533.5,335.11h.4l.1-.8,1.7-.6.6-.1,1-.2,1.3-.1,1.4,1.2.2,2.5-.5.1-.5.6-1.5-.1-1.1.8-1.8.3-1.2-.9-.4-1.6Z" transform="translate(0 0)" style="fill: #e3e3e3;stroke: rgba(9,120,136,.5);"/>
    <path stroke-width="0.5" id="NL" d="M492.8,286.41l2.3.1.5,1.6-.7,4.2-.7,1.7h-1.7l.5,4.7-1.5-1-1.8-2-2.6.9-2.1-.4,1.4-1.2,2.5-6.7Z" transform="translate(0 0)" style="fill: #e3e3e3;stroke: rgba(9,120,136,.5);"/>
    <path stroke-width="0.5" id="NO" d="M554.7,176l8.8,6.2-3.6,2.2,3.1,5.1-4.8,3.2-2.3.7,1.2-5.6-3.6-3.2-4.3,2.8-1.4,5.9-2.7,3.4-3-1.9-3.7.4-3.1-4.1-1.7,2.1-1.7.3-.4,5.1-5.3-1.2-.7,4.2h-2.7l-1.8,5.2-2.8,7.9-4.3,9.5,1,2.2-1,2.6-2.8-.1-1.8,5.9.2,8,1.8,3-.9,6.7-2.3,3.8-1.2,3.1L505,256l-5.5,6.3-3.7,1.2-3.9-2.7-1-5.9-.9-13.3,2.6-3.9,7.4-5.2,5.5-6.6,5.1-9.3,6.7-13.8,4.7-5.7,7.7-9.9,6.2-3.6,4.6.4,4.3-7,5.1.4Z" transform="translate(0 0)" style="fill: #e3e3e3;stroke: rgba(9,120,136,.5);"/>
    <path stroke-width="0.5" id="PL" d="M517.9,297.41l-1.1-2.9.2-1.6-.7-2.4-1-1.6.8-1.2-.7-2.4,1.9-1.4,4.4-2.2,3.5-1.6,2.8.8.2,1.2,2.7.1,3.5.6,5.2-.1,1.4.5.7,1.5.1,2.1.8,1.8v1.9l-1.7.9.9,2.1v2l1.4,3.9-.3,1.2-1.4.5-2.5,3.6.7,1.9-.6-.2-2.7-1.6-2,.6-1.3-.4-1.7.9-1.4-1.5-1.2.6-.2-.3-1.3-2.1-2.1-.3-.3-1.4-1.9-.5-.4,1.1-1.5-.9.2-1.2-2.1-.4Z" transform="translate(0 0)" style="fill: #e3e3e3;stroke: rgba(9,120,136,.5);"/>
    <path class="country" stroke-width="0.5" id="PT" data-index="4" d="M450.4,335l1-1,1.1-.5.7,1.8h1.6l.5-.5,1.6.1.8,1.9-1.3,1v2.9l-.5.5-.1,1.7-1.2.3,1.1,2.2-.8,2.4,1,1.1-.4,1-1,1.3.2,1.2-1.1.9-1.5-.5-1.5.4.4-2.7-.3-2.2-1.3-.3-.7-1.4.2-2.4,1.1-1.3.2-1.5.6-2.2-.1-1.6-.6-1.3Z" transform="translate(0 0)" style="fill: #c4c4c4;stroke: rgba(9,120,136,.5);"/>
    <path stroke-width="0.5" id="RO" d="M539.4,311.31l1.2-.9,1.7.5h1.8l1.3,1,1-.6,2.1-.4.7-1h1.2l.8.4.9,1.2.9,1.8,1.6,2.4.1,1.8-.3,1.7.5,1.8,1.2.7,1.3-.6,1.3.7.1,1-1.4.8-.9-.4-.8,4.7-1.7-.4-2-1.4-3.3.9-1.4,1-4.1-.2-2.2-.6-1.1.3-.8-1.6-.5-.7.6-.7-.7-.5-.9.9-1.6-1.1-.2-1.6-1.7-.9-.3-1.3-1.3-1.6,2.2-.8,1.7-2.8,1.3-2.8Z" transform="translate(0 0)" style="fill: #e3e3e3;stroke: rgba(9,120,136,.5);"/>
    <path stroke-width="0.5" id="RS" d="M534.3,321.31l1.7.9.2,1.6,1.6,1.1.9-.9.7.5-.6.7.5.7-.7.9.2,1.4,1.4,1.7-1.1,1.2-.5,1.2.3.4-.5.5-1.3.1-1,.2-.1-.3.3-.5.3-.9h-.4l-.5-.7-.5-.2-.4-.6-.5-.2-.4-.5-.5.2-.4,1.3-.5.3.2-.3-1.1-.8-.9-.4-.4-.5-.7-.7.7-.2.4-1.8-1.4-1.5.7-1.7h-1l1.1-1.5-.9-1.1-.7-1.6,2.2-1,1.8.2,1.5,1.6Z" transform="translate(0 0)" style="fill: #e3e3e3;stroke: rgba(9,120,136,.5);"/>
    <path stroke-width="0.5" id="SE" d="M538,217.91l-2.7,4.7.4,4-4.5,5.1-5.4,5.3-2,8.4,2,4.1,2.7,3.1-2.6,6.2-2.9,1.3-1.1,8.8-1.6,4.8-3.4-.5-1.6,3.9-3.2.2-.9-4.7-2.4-5.8-2.1-7.5,1.2-3.1,2.3-3.8.9-6.7-1.8-3-.2-8,1.8-5.9,2.8.1,1-2.5-1-2.2,4.3-9.5,2.8-7.9,1.9-5.2h2.7l.8-4.2,5.3,1.2.4-5.1,1.7-.3,3.7,3.8,4.4,5.1.1,11.1.9,2.7Z" transform="translate(0 0)" style="fill: #e3e3e3;stroke: rgba(9,120,136,.5);"/>
    <path stroke-width="0.5" id="SI" d="M514.5,316.91l2.3.3,1.4-.9,2.5-.1.5-.7.5.1.5,1.4-2.2,1.1-.3,1.6-1,.4v1.1l-1.1-.1-1-.6-.5.7-1.9-.1.6-.4-.7-1.7Z" transform="translate(0 0)" style="fill: #e3e3e3;stroke: rgba(9,120,136,.5);"/>
    <path stroke-width="0.5" id="SK" d="M528.6,304.41l.2.3,1.2-.6,1.4,1.5,1.7-.9,1.3.4,2-.6,2.7,1.6-.8,1.1-.5,1.7-.6.4-3-1.3-.9.2-.7,1-1.3.5-.3-.3-1.4.6-1.1.1-.2.8-2.4.5-1-.5-1.4-1.1-.3-1.5.2-.5.4-.9,1.2.1,1-.4.1-.4.5-.2.2-1,.6-.2.4-.8Z" transform="translate(0 0)" style="fill: #e3e3e3;stroke: rgba(9,120,136,.5);"/>
    <path stroke-width="0.5" id="UA" d="M564.9,292.91l1,.2.7-1,.8.2,2.9-.4,1.8,2.6-.7.9.2,1.4,2.2.2,1,1.9-.1.9,3.6,1.5,2.1-.7,1.7,2h1.6l4.1,1.4v1.3l-1.1,2.2.6,2.3-.4,1.4-2.7.3-1.4,1.2-.1,1.8-2.2.3-1.9,1.3-2.6.2-2.4,1.5-1.3,1,1.5,1.5,1.4,1,2.9-.2-.5,1.4-3.1.7-3.8,2.3-1.5-.8.6-1.8-3.1-1.2.5-.8,3.2-1.6-.4-.8-.5.4-.4-.2-4.4-1-.2-1.5-2.6.5-1,2.2-2.2,3-1.3-.7-1.3.6-1.2-.7.7-.4.5-1.4.8-1.3-.2-.7.6-.3.3.6,1.7.1.7-.3-.5-.4.2-.6-1-1-.4-1.7-1-.7.2-1.4-1.3-1.1-1.2-.2-2.1-1.3-1.9.4-.7.6h-1.2l-.7,1-2.1.4-1,.6-1.3-1h-1.8l-1.7-.5-1.2.9-.2-1.1-1.5-1.1.5-1.7.8-1.1.6.2-.7-1.9,2.5-3.6,1.4-.5.3-1.2-1.4-3.9,1.3-.2,1.5-1.2,2.2-.1,2.8.4,3.1,1.1,2.2.1,1,.6,1-.8.7,1,2.5-.2,1.1.4.2-2.3.9-1Z" transform="translate(0 0)" style="fill: #e3e3e3;stroke: rgba(9,120,136,.5);"/>
  </g>
  <g class="continent" id="northAmerica">
    <path stroke-width="0.5" id="GL" d="M344.6,24.31l9.4-13.6,9.8,1.1,3.6-8.9,9.9-2.4,22.4,3.2,17.5,18.6-5.2,8.3-10.6.8-15.1,2,1.4,3.6,9.9-2.2,8.4,6.9,5.5-6.1,2.3,7.2-3.1,11,7.1-6.9,13.6-7.5,8.4,3.8,1.6,8.1L430,64l-1.6,3.9-9,2.9,6.5.8-3.3,11.5-2.3,9.6.1,15.3,3.4,8.3-4.4.5-4.6,3.9L420,127l.7,9.6-3,1,3.6,9.1-6.2.8,3.2,4.1-.9,3.5-4,1.5h-3.9l3.5,6.5v4.1l-5.6-3.8-1.4,2.5,3.8,2.3,3.7,5.5,1.1,6.9-5,1.6-2.2-3.3-3.5-5,1,5.9-3.2,4.4,7.4.3,3.9.4-7.5,7-7.6,6.1-8.2,2.6h-3.1l-2.9,2.9-3.9,7.6-6,4.9-1.9.3-3.7,1.7-4,1.6-2.4,4.1v4.6l-1.4,4.2-4.6,4.9,1.1,4.7-1.3,4.9-1.4,5.6-4,.3-4.1-4.6h-5.6l-2.7-3.2-1.9-5.8-4.9-7.7-1.4-4.1-.4-5.9-3.9-6.3,1-5.2-1.9-2.5,2.8-8.7,4.2-2.8,1.1-3.3.6-6.3-3.2,2.9-1.5,1.2-2.5,1.1-3.4-2.6-.2-5.6,1.1-4.5,2.6-.1,5.7,2.2-4.8-5.4-2.5-3-2.8,1.2-2.3-2.2,3.1-8.5-1.7-3.5-2.2-6.7-3.4-10.9-3.6-4.2v-4.6l-7.5-6.7-5.9-.8-7.5.5-6.8.9-3.3-3.8-4.9-7.7,7.4-4,5.6-.7-12-3.4-6.3-5.4.4-5.3L281.3,90l10.3-7.2,1.1-5.6-7.6-5.8,2.4-6.6,9.7-12.3,4.1-2-1.2-8.6,6.6-5.2,8.6-3.2,8.6-.2,3.1,6.3,7.5-11.2,6.7,7.8,3.9,1.6,5.8,6.4-6.6-10.8Z" transform="translate(0 0)" style="fill: #e3e3e3;stroke: rgba(9,120,136,.5);"/>
    <path stroke-width="0.5" id="BZ" d="M225.8,413.41V413l.3-.1.5.3,1-1.8h.5v.4h.5v.8l-.5,1.3.2.5-.3,1,.2.3-.3,1.5-.6.8-.5.1-.6,1h-.8l.2-3.3Z" transform="translate(0 0)" style="fill: #e3e3e3;stroke: rgba(9,120,136,.5);"/>
    <path class="country" stroke-width="0.5" id="CA" data-index="1" d="M199.4,96.61l-.2-5.9,3.6.6,1.6,1,3.4,4.9-.8,5-4.1,2.8-2.3-3.1Zm13.2,12.7.3-1.5-2-2.4-5.6-.2.8,3.7,5.2.8Zm36.4,46.9,3.1,5.1.8.6,3.1-1.3,3,.2,3,.3-.2-2.6-4.8-5.4-6.4-1.1-1.4.7Zm-65.4-62.7-2.7,4.2,6.2.5,4.6,4.4,4.6,1.5-1.1-5.7-2.1-6.7-7.6-5.3-5.5-2,.2,5.7Zm25.9-10.2,5.1-.1-2.2,4v5.3l3,5.8,5.8,1.8,5-1,5.2-10.7,3.9-4.4-3.4-5-2.2-10.7-4.6-3.2-4.7-3.7-3.6-9.6-6.5.9,1.2,4.2-2.9,1.2-2.1,5.3-1.9,7.5,1.8,7.3Zm-63.8,53.4,3.9,1.9,12.7-1.3-5.8,4.8.4,3.4,4.3-.2,7.1-4.6,9.5-1.7,1.7-5.2-.5-5.6-2.9-.5-2.5,1.9-1.1-4.1-.9-5.7-3.1-1.4-2.6,4.4,4,11.1L165,133l-5-6.8-7.9-4-2.6,3.3Zm22.6-42.1-3.6-2.9-1.5-.7-2.9,4.3-.1,2h4.7ZM166.8,107l.9-4-3.9-2.1-4.1,1.4-2.3,4.3,4.2,4.2Zm29.1,33.2,4.6-1.1,1.3-8.2-.1-5.9-2.1-5.6-.2,1.6-3.9-.7-4.2,4.1-3-.4.2,8.9,4.6-.9-.1,6.5Zm-3.3,45.6-5.1-3.9-4.7-4.2-.9-6.2-1.8-8.9-3.1-3.8-2.8-1.6-2.5,1.4,2,9.6-1.4,3.7-2.3-9-2.6-3.1-3.2,4.8-3.9-4.8-6.2,2.9,1.4-4.5-2.9-1.9-7.5,5.8-1.9,3.7-2.4,6.8,4.9,2.3,4.3-.1-6.5,3.5,1.5,3.1,4,.2,6-.7,5.4,2-3.7,1.4-3.9-.4-4.3,1.4-1.9.9,3.4,6.4,2.5-.9,3.8,2.1,1.5,3.6,5-.7,7.1-1.2,5.3-2.6,3.3-.5,4.8,2.1,5.1,1.2.9-2.9-1.8-3.1,4.6-.6Zm7.8-1-2,3.5-2.5,2.5,3.8,3.5,2.3-.9,3.8,2.4,1.7-2.7-1.7-3-.8-1.5-1.7-1.5Zm-17.7-29.4-2.1-2.2-3.8.4-.9,1.4,4.4,6.8Zm28.7,13.1,3-6.9,3.3-1.9,4.2-8.7-5.4-2.5-5.8-.4-2.8,2.8-1.5,4.2v4.8l1.8,8.2Zm17.2-23,5.8-.2,8-1.6L246,145l4.2-2.3,1.8-2.8-.6-4.5-3-4.2-4.6-.8-5.7,1-4.5,2.4-4.1-.9-3.8-.5-1.8-2.7-3.2-2.6.6-4.4-2.4-4h-5.5l-3.1-4-5.8-.8-1.1,5.1,3.2,3.7,5.8,1.4,2.8,5.1.3,5.6,1,6,7.4,3.4Zm-89-18.2,5.2-5.1,2.6-.6,2.2-4.2.4-9.8-3.9,1.9-4.3-.2-5.8,8.2-4.8,9L135,129Zm72.1,16.2,1.5-4.1-1-3.5-2.4-3.9-4,3-1.5,4.9,3.4,2.8Zm-8.3,11.4-.7-2.9-5,1.3-3.3-2.1-3.3,4.8,3.1,6.3-5.7-1.2-.1,3,7,7.1,1.9,3.4,2.7.7,4.6-3.4.5-8.2-4.2-4.1Zm-74,153.7-1.2-2.3-2.8-1.8-1.4-2-.9-1.5-2.6-.5-1.7-.7-2.9-1-.2,1,1.1,2.4,2.9.8.5,1.2,2.5,1.5.8,1.5,4.6,1.9ZM251.1,231l-2-2.1-2.1.5-.2-3.1-3.2-2-3.1-2.3-1.6-1.8-1.4,1-.5-3-2-.6-1,6.1-.4,5.1-2.4,3.1,3.8-.6,1,3.6,4-3.2,2.8-3.4,1.6,2.9,4.4,1.5ZM130.6,178.5l7.4-4.2v-3.9l3.5-6.4,6.9-6.7,3.5-2.5-3-4.2-2.7-2.9-7.2-.6-4-2.2-9.5,1.6,2.7,6.2-2.4,6.4-1.9,6.9-1.2,3.9,6.5,4.7Zm134.3,27.3.3-1v-3.2l-2.2-2.1-2.6,1.1-1.2,4.2.7,3.6,3.1-.4Zm23.8,7.5,4.4,6.6,3.5,2.9,4.9-7.9.9-4.9-4.4-.5-4-6.7-4.5-1.6-6.6-5,5.1-3.6-2.6-7.5-2.4-3.4-6.8-3.4-2.9-5.6-5.2,2-.4-3.9-3.9-4.3-6.2-4.7-2.6,3.7-5.6,2.7.4-6.1L245,152l-7.1,4.1-2.6,7.7-2.2-5.9,2.1-6.4-7.2,2.6-2.9,4-2.1,8.4.9,9.1h4l-2.9,3.9,2.3,3,4.6,1.2,5.9,2.4,10.2,1.8,5.1-1,1.5-2.4,2.2,2.8,2.5.5,3,5-1.8,2,5.7,2.6,4.3,3.7,1.1,2.6.8,3.2-3.6,6.9-1,3.4.9,2.4-5.8.9-5.3.1-1.9,4.9,2.4,2.2,8.1-1v-1.9l4.1,3.1,4.2,3.3-1,1.8,3.4,3,6,3.5,7.6,2.4-.5-2.1-2.9-3.7-4-5.4,7,5,3.5,1.7,1-4.4-1.8-6.3-1.2-1.7-3.8-3-3-3.9.4-3.9ZM222.9,51.71l2.3,7.3,5,5.9,9.8-1.1,6.3,2-4.4,6.1-2.2-1.8-7.7-.7,1.2,8.3,4,6-.8,5.2-5,3.5-2.3,5.5,4.6,2.7,3.8,8.6-7.5-5.7-1.7.9,1.4,9.4-5.2,2.8.4,5.8,5.3.6,4.2,1.4,8.2-1.8,7.3,3.3,7.5-7.2-.1-3-4.8.5-.4-2.8,3.9-3.8,1.3-5.2,4.3-3.8,2.7-4.8-2.3-7.1,1.9-2.7-3.9-1.9,8.5-1.6,1.8-3.2,5.8-2.6,4.8-13.5,4.6-4.9,6.6-11.1-6.1.1,2.5-4.3,6.8-4,6.8-8.9.1-5.7-5.1-6-6-2.9-7.5-1.8-6.1-1.5-6.1-1.5-8.1,4-1.5-2.5-8.6,1-5,2.6-3.7,3.6-2.1,11.7-3.1-6L235.8,24l-4.1,8-5.5,3.4-3.3.7-4.2,3.8.6,6.7Zm74.4,265-1-2-1.1,1.3.7,1.4,3.6,1.7,1-.3,1.4-1.7-2.6.1Zm-57-77.8.6,1.6,2,.1,3.3-3.3.1-1.2-3.9-.1Zm62.1,66.4-2.9-1.8-3.7-1.1-1,.4,2.6,2,3.6,1.3,1.4-.1Zm24.9,4.8-.4-2.2-2,.7.9-3.1-2.8-1.3-1.3,1-2.5-1.2,1-1.5-1.9-.9-1.8,1.5,1.9-3.8,1.5-2.8.5-1.2-1.3-.2-2.4,1.5-1.7,2.5-2.9,6.9-2.4,2.6,1.2,1.1-1.8,1.5.4,1.2,5.4.1,3-.2,2.7,1-2,1.9,1.7.1,3.2-3.6.8.5-.6,3.4,1.8.8,1.3-.1,1.2-3.6Zm-21.2,4.8-2.8,4.6-4.6.6-3.6-2-.9-3.1-.9-4.5,2.6-2.8-2.5-2.1-4.2.4-5.9,3.5-4.5,5.5-2.4.7,3.2-3.8,4-5.6,3.6-1.9,2.4-3.1,2.9-.3h4.2l6,.9,4.7-.7,3.5-3.6,4.6-1.6,2-1.6,2-1.7-.2-5.2-1.1-1.8-2.2-.6-1.1-4-1.8-1.5-4.5-1.3-2.5-2.8-3.7-2.8,1.1-3.2-3.1-6.3-3.6-6.9-2.2-5-1.9,2.6L290,260l-4.1,3-2-3.2-2.6-.9-.9-7,.1-4.8-5-.4-.9-2.3-3.5-3.4-2.6-2-2.3,1.6-2.9-.6-4.8-1.6-2,1.4.9,9.2,1.2,5.1-3.3,5.8,3.4,4,1.9,4.4.2,3.4-1.5,3.5-3.2,3.5-4.5,2.3,2,2.5,1.5,7.4-1.5,4.7-2.2,1.5-4.2-4.3-2-5.2-.9-4.8.5-4.2-3.1-.5-4.6-.3-3-2.1-3.5-1.4-2-2.4-2.8-1.9-5.2-2.2-3.9,1-1.3-4-1.3-5-4.1-.9.1-6.4,1.1-4.5,3-6.6,3.4-4.9,3.3-.8.2-4.1,2.2-2.7,4-.4,3.2-4.4.8-2.9,2.7-5.7.8-3.5,2.9,2.1,3.9-1.1,5.5-5,.4-3.5-2-4,2.1-4.1-.2-3.9-3.8-3.9-4.1-1.2-4-.6-.1,8.7-2,6.6-2.9,5.3-2.7-4.9.8-5.6-3.4-5-3.8,6.1v-8l-5.2-1.6,2.5-4-3.8-9.6-2.8-3.9-3.7-1.4-3.3,6.4-.2,9.3,3.3,3.3,3,4.9-1.3,7.7-2.3-.2-1.8,5.9v-7l-4.3-2.6-2.5,1.3.3,4.7-4.1-.2-4.4,1.2-4.9-3.4-3.1.6-2.3-4-2.3-1.8-2.2.8-3.4.4-1.8,2.6,2.9,3.2-3.1,3.7-3-4.4-2.4,1.3-7.6.9-5.1-1.6,3.9-3.7-3.8-3.9-2.8.5-3.9-1.3-6.6-2.9-4.3-3.4-3.4-.5-1.1,2.4-3.4,1.3-.4-6.1-3.7,5.5-4.7-7.3-1.9-.9-.6,3.9-2.1,1.9-1.9-3.4-4.6,2.1-4.2,3.6-4.2-1-3.4,2.5-2.5,3.3-2.9-.7-4.4-3.8-5.2-1.9v63l2.8.2,2.7,1.6,2,2.4,2.5,3.6,2.7-3.1,2.8-1.8,1.5,2.9,1.9,2.2,2.6,2.4,1.8,3.8,2.9,5.9,4.8,3.2.1,3.1-1.6,2.4.1,2.5,3.4,3.5.5,3.8,3.6,2-.4,2.8,1.6,4,5.1,1.8,2,1.9,5.4,4.2h78.1v-1.6h.9l.5,2.4.9.7,2,.3,2.9.7,2.7,1.3,2.3-.5,3.4,1.1,1.1-1.7,1.6-.7.6-1,.6-.5,2.6.9,1.9.1.7.6.9,2.4,3.1.6-.5,1.2,1.1,1.2-.5,1.6,1.2.5-.6,1.4.8.1.5-.6.6.9,2.1.5h2.1l2.3.4,2.5.8.9,1.3,1.8,3-.9,1.3-2.3-.5-1.4-2.4.4,2.5-1.3,2.2.1,1.8-.2,1.1-1.8,1.3-1.3,2.1-.6,1.3,1.5.2,2.1-1.2,1.2-1.1.8-.2,1.5.4.8-.6,1.4-.5,2.4-.5h0l-.2-1.1h-.1l-.9.2-1.1-.4.8-1.3.9-.5,2-.6,2.4-.5,1.2.7.8-.9.9-.5.6.3v.1l2.9-2.7,1.3-.7h9.5l.3-1,.9-.2,1.2-.6,1-1.8.9-3.1,2.1-3.1.9,1.1,1.9-.7,1.2,1.2V321l1.8,2.2,3.1-.5,4.5-.1-4.9,3.3.1,3.3,2.1.3,3.1-2.8,2.8-1.6,6.2-2.4,3.5-2.6-1.8-1.5Zm-53.7-71.1,1.1-3.1-.7-1.2-1.1-.1-1.1,1.8-.1.4.7,1.8Zm-142.7,36.4h0l1.6-2.4Zm-3.4,3.3-2.7.4-1.3-.6-.2,1.5.5,2.1,1.4,1.5,1,2.1,1.7,2.1h1.1l-2.4-3.7Z" transform="translate(0 0)" style="fill: #c4c4c4;stroke: rgba(9,120,136,.5);"/>
    <path stroke-width="0.5" id="CR" d="M243.1,440.81l-1.5-.6-.6-.6.3-.5-.1-.6-.8-.7-1.1-.6-1-.4-.2-.8-.7-.5.2.8-.6.7-.6-.8-.9-.3-.4-.6v-.9l.4-.9-.8-.4.6-.5.4-.4,1.8.8.6-.4.9.2.5.6.8.2.7-.6.7,1.5,1.1,1.1,1.3,1.2-1.1.2v1.1l.6.4-.4.3.1.5-.2.6Z" transform="translate(0 0)" style="fill: #e3e3e3;stroke: rgba(9,120,136,.5);"/>
    <path class="country" stroke-width="0.5" id="GT" data-index="2" d="M223.1,425.21l-1.4-.5h-1.8l-1.3-.6-1.5-1.2.1-.8.3-.7-.4-.5,1.3-2.4H222l.1-1-.5-.2-.3-.6-1-.7-1-1h1.3v-1.6h5.2v2.3l-.2,3.3h.8l.9.5.2-.4.8.4-1.3,1.1-1.3.8-.2.6.2.6-.6.7-.7.2.2.3-.5.3-1,.7Z" transform="translate(0 0)" style="fill: #c4c4c4;stroke: rgba(9,120,136,.5);"/>
    <path stroke-width="0.5" id="HN" d="M230.9,427.31l-.5-.9-.9-.2.2-1.2-.4-.3-.6-.2-1.2.3v-.4l-.9-.5-.6-.6-.8-.2.6-.7-.2-.6.2-.6,1.3-.8,1.3-1.1.3.1.6-.5h.8l.3.2.4-.1,1.3.3,1.3-.1.9-.3.3-.3.9.1.7.2.7-.1.6-.2,1.3.4.4.1.9.5.8.7,1,.4.7.8-1-.1-.4.4-1,.4h-.7l-.6.4-.6-.1-.5-.4-.3.1-.4.7h-.3v.6l-1,.8-.5.3-.3.4-.8-.6-.6.8H233l-.7.1.1,1.4H232l-.3.7Z" transform="translate(0 0)" style="fill: #e3e3e3;stroke: rgba(9,120,136,.5);"/>
    <path class="country" stroke-width="0.5" id="MX" data-index="3" d="M203.4,389.11l-1.1,2.7-.5,2.2-.2,4.1-.3,1.5.5,1.6.9,1.5.6,2.3,1.9,2.2.6,1.7,1.1,1.4,3,.8,1.2,1.2,2.5-.8,2.1-.3,2.1-.5,1.8-.5,1.8-1.2.7-1.7.2-2.5.5-.9,1.9-.8,3-.7,2.5.1,1.7-.2.7.6-.1,1.4-1.5,1.8-.7,1.8.5.5-.4,1.3-.7,2.3-.7-.8h-1.1l-1,1.8-.5-.3-.3.1v.4h-5.2v1.6h-1.3l1,1,1,.7.3.6.5.2-.1,1h-3.6l-1.3,2.4.4.5-.3.7-.1.8-3.2-3.1-1.5-.9-2.3-.8-1.6.2-2.3,1.1-1.4.3-2-.8-2.1-.6-2.6-1.3-2.1-.4-3.2-1.4-2.3-1.4-.7-.8-1.6-.2-2.9-.9-1.2-1.3-3-1.7-1.4-1.9-.7-1.5.9-.3-.3-.9.6-.8v-1l-.9-1.3-.3-1.2-.9-1.5-2.5-3-2.8-2.4-1.4-1.9-2.4-1.3-.5-.8.4-1.9-1.4-.7-1.7-1.5-.7-2.2-1.5-.3-1.6-1.7-1.3-1.5-.1-1-1.5-2.4-1-2.5V372l-2-1.3-.9.1-1.6-.9-.4,1.3.5,1.6.3,2.4,1,1.3,2.1,2.2.5.8.4.2.4,1.1.5-.1.6,2,.9.8.6,1.1,1.8,1.6.9,2.9.8,1.4.8,1.4.2,1.6,1.3.1,1.1,1.4,1,1.4-.1.5-1.2,1.1h-.5l-.7-1.8-1.8-1.7-2-1.5-1.4-.8.1-2.2-.4-1.7-1.3-1-1.9-1.4-.4.4-.7-.8-1.7-.8-1.6-1.8.2-.2,1.1.2,1-1.2.1-1.4-2.5-1.9-1.6-.9-1-2-1-2.1-1.3-2.6-1.1-3,3.2-.2,3.6-.4-.3.6,4.2,1.6,6.4,2.3h7.8v-1.3h4.9l1,1.2,1.4,1,1.7,1.4.9,1.7.7,1.8,1.5,1,2.3,1,1.8-2.5,2.3-.1,2,1.3,1.4,2.2,1,1.9,1.7,1.8.6,2.2.8,1.5,2.2,1,2,.7Z" transform="translate(0 0)" style="fill: #c4c4c4;stroke: rgba(9,120,136,.5);"/>
    <path stroke-width="0.5" id="NI" d="M235.4,432.71l-1-.9-1.3-1.1-.6-1-1.2-.9-1.4-1.3.3-.4.5.4.2-.2.9-.1.3-.7h.4l-.1-1.4.7-.1h.6l.6-.8.8.6.3-.4.5-.3,1-.8v-.6h.3l.4-.7.3-.1.5.4.6.1.6-.4h.7l1-.4.4-.4,1,.1-.2.3-.1.6.3,1.1-.6,1-.3,1.2-.1,1.3.2.7.1,1.3-.4.3-.3,1.2.2.8-.6.7.1.8.4.5-.7.6-.8-.2-.5-.6-.9-.2-.6.4-1.8-.8Z" transform="translate(0 0)" style="fill: #e3e3e3;stroke: rgba(9,120,136,.5);"/>
    <path stroke-width="0.5" id="PA" d="M257.4,443.61l-.9-.8-.6-1.5.7-.8-.7-.2-.5-.9-1.4-.8-1.2.2-.6,1-1.1.7-.6.1-.3.6,1.3,1.5-.8.4-.4.4-1.3.1-.5-1.7-.4.5-.9-.2-.6-1.1-1.1-.2-.7-.3h-1.3l-.1.6-.3-.4.1-.6.2-.6-.1-.5.4-.3-.6-.4v-1.1l1.1-.2,1,1-.1.6,1.1.1.3-.2.8.7,1.4-.2,1.2-.7,1.7-.6,1-.8,1.6.2-.1.3,1.6.1,1.2.5.9.8,1.1.8-.3.4.6,1.6-.5.8-.9-.2Z" transform="translate(0 0)" style="fill: #e3e3e3;stroke: rgba(9,120,136,.5);"/>
    <path stroke-width="0.5" id="SV" d="M229.6,426.21l-.3.7h-1.6l-1-.3-1.2-.6-1.6-.2-.8-.6.1-.4,1-.7.5-.3-.2-.3.7-.2.8.2.6.6.9.5.1.4,1.2-.3.6.2.4.3Z" transform="translate(0 0)" style="fill: #e3e3e3;stroke: rgba(9,120,136,.5);"/>
    <path class="country" stroke-width="0.5" id="US" data-index="4" d="M109.7,280.21h0l-1.5-1.8-2.5-1.6-.8-4.4-3.6-4.1-1.5-4.9-2.7-.3-4.5-.1-3.3-1.5-5.8-5.6-2.7-1.1-4.9-2-3.9.5-5.5-2.6-3.3-2.4-3.1,1.2.6,3.9-1.5.4L56,255l-2.5,1.9-3.1,1.2-.4-3.2,1.3-5.5,3-1.8-.8-1.5-3.6,3.2L48,253.1l-4,4,2,2.6-2.7,3.9-3,2.2-2.8,1.6-.7,2.3-4.4,2.6-.9,2.4-3.3,2.1-1.9-.4-2.6,1.4-2.9,1.7-2.3,1.6-4.8,1.4-.4-.8,3.1-2.3,2.7-1.5,3-2.7,3.5-.6,1.4-2.1,3.9-3,.6-1,2.1-1.8.5-4,1.4-3.2-3.2,1.6-.9-.9-1.5,2-1.8-2.7-.8,1.9-1-2.7-2.8,2.2H21.8l-.2-3.2.5-2-1.8-2-3.6,1.1-2.4-2.6-1.9-1.4v-3.2l-2.2-2.5,1.1-3.4,2.3-3.4,1-3.1,2.3-.4,1.9,1,2.3-3,2,.5,2.1-2-.5-2.9-1.6-1.2,2.1-2.5-1.7.1-3,1.4-.9,1.4-2.2-1.4-4,.7-4.1-1.6-1.2-2.6-3.5-3.9,3.9-2.9,6.2-3.4H17l-.4,3.5,5.9-.3-2.3-4.3-3.5-2.7-2-3.6L12,201.9l-3.8-2.4,1.6-4,5-.2,3.5-3.6.7-3.9,2.9-3.9,2.7-.9,5.3-3.8,2.6.6,4.3-4.6L41,177l2,3.9,1.2-1.6,4.7.5-.2,1.9,4.3,1.4,2.9-.8,5.9,2.6,5.4.8,2.2,1.1,3.7-1.3,4.2,2.5,3.2.4v63l2.8.2,2.7,1.6,2,2.4,2.5,3.6,2.7-3.1,2.8-1.8,1.5,2.9,1.9,2.2,2.6,2.4,1.8,3.8,2.9,5.9,4.8,3.2.1,3.1Zm176,34.4-1.2-1.2-1.9.7-.9-1.1-2.1,3.1-.9,3.1-1,1.8-1.2.6-.9.2-.3,1h-9.5l-1.3.7-2.9,2.7.3.5.2,1.5-2.1,1.3-2.3-.3-2.2-.1-1.3.4.2,1.1h0l.1.4-2.4,2.3-2.1,1.1-1.4.5-1.7,1-2,.5-1.4-.2-1.7-.8,1-1.5.6-1.3,1.3-2.1-.1-1.6-.5-2.2-1-.4-1.7,1.7h-.6l-.1-1,1.5-1.6.3-1.8-.2-1.8-2.1-1.5-2.4-.8-.4,1.5-.6.4-.5,2-.3-1.3-1.1,1-.7,1.3-.7,1.9-.1,1.6.9,2.4-.1,2.5-1.1,1.8-.6.5-.8.4h-.9l-.3-.2-.8-2v-1l.1-.9-.4-1.9.5-2.2.6-2.7,1.5-3h-.4l-2.1,2.5-.4-.5,1.1-1.4,1.7-2.6,1.9-.4,2.2-.8,2.2.4h.1l2.5-.4-1.4-1.6-.8-.1-.9-.2-.6-1.1-2.8.4-2.5.9-2-1.5-1.6-.5.9-2.2-2.5,1.4-2.2,1.3-2.2,1-1.7-1.4-2.8.9v-.6l1.9-1.7,2-1.6,2.9-1.4-3.4-1.1-2.3.5-2.7-1.3-2.9-.7-2-.3-.9-.7-.5-2.4h-.9V306H131.2l.9,3.5.4,3.4-.7,1.1-1.5-3.9-4.1-1.4-.3.8.8,1.9.9,3.5.5,5.4-.3,3.6-.3,3.5-1.1,3.6.9,2.9.1,3.2-.6,3,1.5,2,.4,3,2.2,3,1.2,1.2-.1.8,2.3,4.9,2.7,3.5.3,1.9.7.5,2.6.3,1,.9,1.6.2.3,1,1.3.4,1.8,1.9.5,1.7,3.2-.2,3.6-.4-.3.6,4.2,1.6,6.4,2.3H172v-1.4h4.9l1,1.2,1.4,1,1.7,1.4.9,1.7.7,1.8,1.4,1,2.3,1,1.8-2.5,2.3-.1,2,1.3,1.4,2.2,1,1.9,1.6,1.8.6,2.2.8,1.5,2.2,1,2,.7,1.1-.1-.5-1.1-.1-1.5V384l.6-1.4,1.5-1.5,2.8-1.4,2.6-2.4,2.4-.8,1.7-.2,2,.7,2.4-.4,2.1,1.7,2,.1,1.1-.6,1,.5.5-.4-.6-.6.1-1.3-.5-.9,1.2-.5,2.1-.2,2.5.4,3.2-.4,1.8.8,1.4,1.5.5.2,2.8-1.5,1.1.5,2.2,2.7.8,1.8-.6,2.1.4,1.2,1.3,2.4,1.5,2.7,1.1.7.4,1.4,1.4.4.8-.4.7-1.9.1-1.2.1-2.1-1.3-3.6v-1.4l-1.2-2.2-.9-2.8-.5-2.2.4-2.3,1.3-1.9,1.6-1.6,3.1-2.2.4-1.1,1.4-1.2,1.4-.2,1.8-2,2.9-1,1.8-2.5-.4-3.5-.3-1.2-.8-.2-.1-3.4-1.9-1.1,1.9.6-.6-2.3.5-1.5.3,3,1.4,1.4-.9,2.4.3.1,1.6-2.8.9-1.4v-1.4l-.7-.6-.6-1.9.9.9.6.2.2.9,2-2.8.6-2.6-.8-.2.9-1-.1.5h1.8l3.9-1.1-.8-.7-4.1.7,2.3-1.1,1.6-.2,1.2-.2,2.1-.6,1.4.1,1.9-.6.2-1.1-.8-.8.3,1.4-1.2-.1-.9-2v-2l.5-.9,1.5-2.3,3-1.1,2.9-1.3,3-1.9-.4-1.4-1.8-2.2ZM46.1,264.21l-1.5.8-2.5,1.9.4,2.4,1.4,1.3,2.8-2,2.4-2.5-1.2-1.6ZM.5,235.61l2-1.3.2-.7L.5,233ZM9,251l-2.8,1,1.7,1.5,1.8,1,1.7-.9-.3-2.1Zm97.3,32.5-2.7.4-1.3-.6-.2,1.5.5,2.1,1.4,1.5,1,2.1,1.7,2.1h1.1l-2.4-3.7ZM37.6,404.21l-1-.3-.3.3v.2l.3.2.5.6.9-.2.2-.4Zm-3-.6,1.5.1.1-.3-1.4-.1Zm5.9,3.3-.5-.3-1.1-.5-.2-.1-.2.3.2.6-.5.5-.1.3.5,1.1-.1.8.7.4.4-.5.9-.5,1.1-.6.1-.2-.7-1Zm-7.8-5.1-.8.4.1.1.4.7,1,.1h.2l.2-.2-.8-1Zm-4.4-1.6-.4.3-.1.2.9.5.3-.3-.1-.7Z" transform="translate(0 0)" style="fill: #c4c4c4;stroke: rgba(9,120,136,.5);"/>
  </g>
  <g class="continent" id="southAmerica">
    <path class="country" stroke-width="0.5" id="AR" data-index="1" d="M292.1,649.31l-2.7.2-1.4-1.7-1.7-.1h-3v-10.6l1.1,2.2,1.4,3.5,3.6,2.9,3.9,1.2Zm1.5-122.4,1.6,2.2,1.1-2.4,3.2.1.5.6,5.1,4.9,2.3.5,3.4,2.3,2.9,1.2.4,1.4-2.8,4.7,2.8.8,3.1.5,2.2-.5,2.5-2.4.5-2.7,1.4-.6,1.4,1.8-.1,2.5-2.4,1.7-1.9,1.3-3.2,3.1-3.7,4.4-.7,2.6-.8,3.4v3.3l-.6.7-.2,2.2-.2,1.8,3.6,2.9-.4,2.4,1.8,1.5-.1,1.7-2.7,4.5-4.2,1.9-5.6.8-3.1-.4.6,2.2-.6,2.7.5,1.8-1.7,1.3-2.9.5-2.7-1.3-1.1,1,.4,3.7,1.9,1.1,1.5-1.2.8,2-2.6,1.2-2.2,2.4-.4,3.9-.7,2.1h-2.6l-2.2,2-.8,3,2.8,3,2.7.8-1,3.7-3.3,2.4-1.8,5-2.6,1.7-1.1,2.1.9,4.6,1.9,2.6-1.2-.2-2.6-.7-6.8-.6-1.2-2.6v-3.3l-1.9.3-1-1.6-.2-4.6,2.1-1.9.9-2.7-.3-2.1,1.5-3.5,1-5.3-.3-2.3,1.2-.8-.3-1.5-1.3-.8.9-1.6-1.3-1.5-.6-4.4,1.1-.8-.5-4.5.7-3.8.8-3.2,1.7-1.3-.9-3.5v-3.2l2.1-2.3-.1-2.9,1.6-3.3v-3.1l-.7-.6-1.3-5.7,1.7-3.3-.3-3.1,1-2.9,1.8-3,2-2-.2-1.3.6-1-.1-5.1,3-1.5,1-3.2-.3-.8,2.3-2.7Z" transform="translate(0 0)" style="fill: #c4c4c4;stroke: rgba(9,120,136,.5);"/>
    <path stroke-width="0.5" id="BO" d="M299.5,526.71l-3.2-.1-1.1,2.4-1.6-2.2-3.7-.7-2.3,2.7-2,.4-1.1-4.2-1.5-3.3.9-2.9-1.5-1.2-.4-2.1-1.4-2,1.8-3.1-1.2-2.4.6-1-.5-1.1,1.1-1.4.1-2.4.1-2,.6-1-2.4-4.6,2.1.2,1.4-.1.6-.9,2.5-1.1,1.5-1.1,3.7-.5-.3,2.1.3,1.1-.2,1.9,3.1,2.5,3.1.5,1.1,1.1,1.9.6,1.2.8h1.8l1.6.9.1,1.7.5.8v1.2H306l1.1,3.4,5.4.1-.4,1.7.3,1.1,1.5.8.7,1.8-.5,2.3-.8,1.3.3,1.7-.9.6v-.9l-2.6-1.5h-2.6l-4.9.9-1.3,2.6-.1,1.6-1.1,3.6Z" transform="translate(0 0)" style="fill: #e3e3e3;stroke: rgba(9,120,136,.5);"/>
    <path class="country" stroke-width="0.5" id="BR" data-index="2" d="M314.2,552.21l3.7-4.4,3.2-3.1,1.9-1.3,2.4-1.7.1-2.5-1.4-1.8-1.4.6.6-1.8.4-1.8v-1.7l-1-.5-1.1.5-1-.1-.3-1.2-.3-2.8-.5-.9-1.9-.8-1.1.6-3-.6.2-4.1-.8-1.7.9-.6-.3-1.7.8-1.3.5-2.3-.7-1.8-1.5-.8-.3-1.1.4-1.7-5.4-.1-1.1-3.4h.8v-1.2l-.5-.8-.1-1.7-1.6-.9H303l-1.2-.8-1.9-.6-1.1-1.1-3.1-.5-3.1-2.5.2-1.9-.3-1.1.3-2.1-3.7.5-1.5,1.1-2.5,1.1-.6.9-1.4.1-2.1-.2-1.6.5-1.3-.3.2-4.3-2.3,1.7-2.5-.1-1.1-1.5-1.9-.2.6-1.2-1.6-1.7-1.2-2.5.7-.5v-1.2l1.7-.8-.3-1.5.7-1,.2-1.3,3.2-1.9,2.3-.5.4-.4,2.5.1,1.3-7.6.1-1.2-.4-1.6-1.2-1v-2l1.6-.5.6.3.1-1.1-1.6-.3v-1.7l5.5.1.9-1,.8.9.5,1.6.5-.3,1.6,1.5,2.2-.2.5-.9,2.1-.6,1.2-.4.3-1.2,2-.8-.2-.6-2.4-.2-.4-1.8.1-1.9-1.2-.7.5-.3,2.1.4,2.2.7.8-.7,2-.4,3.1-1,1-1.1-.4-.8,1.5-.1.7.6-.4,1.2,1,.4.6,1.3-.8,1-.5,2.4.7,1.4.2,1.3,1.7,1.3,1.4.1.3-.5.9-.1,1.3-.5.9-.7,1.6.2.7-.1,1.5.2.2-.6-.5-.5.3-.8,1.1.2,1.3-.3,1.6.6,1.2.6.9-.8.6.1.4.8,1.3-.2,1.1-1.1.9-2.1,1.7-2.6,1-.1.7,1.5,1.6,4.9,1.5.5.1,1.9-2.1,2.3.9.8,5,.4.1,2.8,2.1-1.8,3.5,1,4.6,1.7,1.4,1.6-.5,1.5,3.3-.9,5.5,1.5,4.2-.1,4.1,2.3,3.6,3.1,2.2.8,2.4.1,1,.9,1,3.6.5,1.7-1.1,4.7-1.4,1.8-3.9,3.9-1.8,3.2-2.1,2.5-.7.1-.8,2.1.2,5.4-.8,4.5-.3,1.9-.9,1.2-.5,3.9-2.8,3.9-.5,3.1-2.3,1.3-.7,1.8h-3l-4.4,1.2-2,1.3-3.1.9-3.3,2.4-2.4,3.1-.4,2.3.5,1.7-.5,3.2-.6,1.5-2,1.8-3.1,5.7-2.5,2.6-1.9,1.5-1.3,3.2-1.9,1.9-.8-1.9,1.2-1.6-1.6-2.2-2.2-1.8-2.9-2.1-1,.1-2.8-2.5Z" transform="translate(0 0)" style="fill: #c4c4c4;stroke: rgba(9,120,136,.5);"/>
    <path class="country" stroke-width="0.5" id="CL" data-index="3" d="M283.3,637.11v10.6h3l1.7.1-.9,2-2.4,1.5-1.4-.2-1.7-.4-2-1.5-2.9-.7-3.5-2.7-2.9-2.6-3.9-5.2,2.3,1,3.9,3.1,3.7,1.7,1.5-2.2.9-3.2,2.6-1.9Zm1.2-112,1.1,4.2,2-.4.3.8-1,3.2-3,1.5.1,5.1-.6,1,.8,1.2-2,2-1.8,3-1,2.9.3,3.1L278,556l1.3,5.7.7.6v3.1l-1.6,3.3.1,2.9-2.1,2.3v3.2l.9,3.5-1.7,1.3-.8,3.2-.7,3.8.5,4.5-1.1.8.6,4.4,1.3,1.5-.9,1.6,1.3.8.3,1.5-1.2.8.3,2.3-1,5.3-1.5,3.5.3,2.1-.9,2.7-2.1,1.9.2,4.6,1,1.6,1.9-.3v3.3l1.2,2.6,6.8.6,2.6.7h-2.5l-1.4,1.1-2.5,1.7-.5,4.4-1.2.1-3.2-1.5-3.2-3.2h0l-3.5-2.6-.9-2.9.8-2.6-1.4-2.9-.4-7.3,1.2-4,3-3.2-4.3-1.2,2.7-3.6,1-6.6,3.1,1.4,1.5-8-1.9-1-.9,4.8-1.8-.5.9-5.4,1-6.8,1.3-2.5-.8-3.5-.2-4,1.2-.1,1.7-5.6,1.9-5.4,1.2-5-.6-4.9.8-2.7-.3-4,1.6-3.9.5-6,.9-6.4.9-6.8-.2-4.9-.6-4.2,1.4-.8.8-1.5,1.4,2,.4,2.1,1.5,1.2-.9,2.9Z" transform="translate(0 0)" style="fill: #c4c4c4;stroke: rgba(9,120,136,.5);"/>
    <path stroke-width="0.5" id="CO" d="M264.4,464.21l-1.2-.7-1.4-.9-.8.4-2.4-.4-.7-1.2-.5.1-2.8-1.6-.4-.9,1.1-.2-.1-1.4.7-1,1.4-.2,1.2-1.8,1.1-1.5-1-.7.5-1.6-.6-2.6.6-.7-.4-2.4-1.1-1.5.4-1.4.9.2.5-.8-.6-1.6.3-.4,1.4.1,2.1-2,1.1-.3v-.9l.5-2.4,1.6-1.3,1.8-.1.2-.6,2.2.2,2.2-1.4,1.1-.6,1.4-1.4,1,.2.7.8-.5,1-1.8.5-.7,1.4-1.1.8-.8,1.1-.4,2-.8,1.7,1.4.2.4,1.3.6.6.2,1.1-.3,1,.1.6.7.2.7,1,3.6-.3,1.6.4,2,2.4,1.1-.3,2,.1,1.6-.3,1,.5-.5,1.5-.6.9-.2,2,.6,1.9.8.8.1.6-1.4,1.4,1,.6.8,1,.8,2.8-.5.3-.5-1.6-.8-.9-.9,1-5.5-.1v1.7l1.6.3-.1,1.1-.6-.3-1.6.5v2l1.2,1,.4,1.6L281,468l-1.3,7.6-1.4-1.5-.8-.1,1.8-2.8-2.1-1.3-1.7.2-1-.5-1.6.7-2.1-.4-1.6-2.9-1.3-.7L267,465l-1.9-1.3Z" transform="translate(0 0)" style="fill: #e3e3e3;stroke: rgba(9,120,136,.5);"/>
    <path stroke-width="0.5" id="EC" d="M250.6,473.31l1.5-2.1-.6-1.2-1.1,1.3-1.7-1.2.6-.8-.5-2.5,1-.4.5-1.7,1.1-1.8-.2-1.1,1.5-.6,1.9-1.1,2.8,1.6.5-.1.7,1.2,2.4.4.8-.4,1.4.9,1.2.7.4,2.1-.9,1.8-3.1,2.9-3.4,1.1-1.7,2.4-.5,1.9-1.6,1.1-1.2-1.4-1.1-.3-1.2.2-.1-1,.8-.7Z" transform="translate(0 0)" style="fill: #e3e3e3;stroke: rgba(9,120,136,.5);"/>
    <path stroke-width="0.5" id="FK" d="M304.2,633.51l3.4-2.7,2.4,1.1,1.7-1.8,2.2,2-.8,1.6-3.8,1.4-1.3-1.6-2.4,2Z" transform="translate(0 0)" style="fill: #e3e3e3;stroke: rgba(9,120,136,.5);"/>
    <path stroke-width="0.5" id="GF" d="M328.4,456.81l-1.1,1.1-1.3.2-.4-.8-.6-.1-.9.8-1.2-.6.7-1.2.2-1.3.5-1.2-1.1-1.6-.2-1.9,1.5-2.4,1,.3,2.1.7,3,2.4.5,1.1-1.7,2.5Z" transform="translate(0 0)" style="fill: #e3e3e3;stroke: rgba(9,120,136,.5);"/>
    <path stroke-width="0.5" id="GY" d="M308.2,440.41l1.8,1,1.7,1.8.1,1.5,1.1.1,1.5,1.4,1.1,1-.4,2.5-1.7.7.1.6-.5,1.5,1.2,2h.9l.4,1.6,1.7,2.4-.7.1-1.6-.2-.9.7-1.3.5-.9.1-.3.5-1.4-.1-1.7-1.3-.2-1.3-.7-1.4.5-2.4.8-1-.6-1.3-1-.4.4-1.2-.7-.6-1.5.1-1.9-2.1.8-.8-.1-1.3,1.7-.5.7-.5-1-1,.2-1Z" transform="translate(0 0)" style="fill: #e3e3e3;stroke: rgba(9,120,136,.5);"/>
    <path stroke-width="0.5" id="PE" d="M280.6,513.51l-.8,1.5-1.4.7-2.8-1.7-.2-1.2-5.6-2.9-5-3.2-2.2-1.8-1.2-2.4.5-.8-2.4-3.8-2.8-5.2-2.6-5.6-1.1-1.3-.9-2.1-2.2-1.8-2-1.1.9-1.2-1.4-2.7.9-1.9,2.2-1.8.3,1.2-.8.7.1,1,1.2-.2,1.1.3,1.2,1.4,1.6-1.1.5-1.9,1.7-2.4,3.4-1.1,3.1-2.9.9-1.8-.4-2.1.8-.3,1.9,1.3.9,1.3,1.3.7,1.6,2.9,2.1.4,1.6-.7,1,.5,1.7-.2,2.1,1.3-1.8,2.8.8.1,1.4,1.5-2.5-.1-.4.4-2.3.5-3.2,1.9-.2,1.3-.7,1,.3,1.5-1.7.8v1.2l-.7.5,1.2,2.5,1.6,1.7-.6,1.2,1.9.2,1.1,1.5,2.5.1,2.3-1.7-.2,4.3,1.3.3,1.6-.5,2.4,4.6-.6,1-.1,2-.1,2.4-1.1,1.4.5,1.1-.6,1,1.2,2.4Z" transform="translate(0 0)" style="fill: #e3e3e3;stroke: rgba(9,120,136,.5);"/>
    <path stroke-width="0.5" id="PY" d="M300,527.41l1.1-3.6.1-1.6,1.3-2.6,4.9-.9H310l2.6,1.5v.9l.8,1.7-.2,4.1,3,.6,1.1-.6,1.9.8.5.9.3,2.8.3,1.2,1,.1,1.1-.5,1,.5v1.7l-.4,1.8-.6,1.8-.5,2.8-2.5,2.4-2.2.5-3.1-.5-2.8-.8,2.8-4.7-.4-1.4-2.9-1.2-3.4-2.3-2.3-.5Z" transform="translate(0 0)" style="fill: #e3e3e3;stroke: rgba(9,120,136,.5);"/>
    <path stroke-width="0.5" id="SR" d="M315.5,447.11l3.4.6.3-.5,2.3-.2,3,.8-1.5,2.4.2,1.9,1.1,1.7-.5,1.2-.2,1.3-.7,1.2-1.6-.6-1.3.3-1.1-.2-.3.8.5.5-.2.6-1.5-.2-1.7-2.4-.4-1.6h-.9l-1.2-2,.5-1.5-.1-.6,1.7-.7Z" transform="translate(0 0)" style="fill: #e3e3e3;stroke: rgba(9,120,136,.5);"/>
    <path class="country" stroke-width="0.5" id="UY" data-index="4" d="M314.2,552.21l1.8-.3,2.8,2.5,1-.1,2.9,2.1,2.2,1.8,1.6,2.2-1.2,1.6.8,1.9-1.2,2.1-3.2,1.9-2.1-.7-1.5.4-2.6-1.5-1.9.1-1.7-1.9.2-2.2.6-.7v-3.3l.8-3.4Z" transform="translate(0 0)" style="fill: #c4c4c4;stroke: rgba(9,120,136,.5);"/>
    <path stroke-width="0.5" id="VE" d="M275.7,430.81l-.1.7-1.7.3.9,1.3v1.5l-1.2,1.6,1.1,2.2,1.2-.2.6-2-.9-1-.1-2.1,3.5-1.2-.4-1.3,1-.9,1,2h2l1.8,1.6.1.9H287l3-.3,1.6,1.3,2.1.4,1.6-.9V434l3.5-.2h3.4l-2.4.8,1,1.3,2.2.2,2.1,1.4.5,2.3,1.5-.1,1.1.7L306,442l-.2,1,1,1-.7.5-1.7.5.1,1.3-.8.8,1.9,2.1.4.8-1,1.1-3.1,1-2,.4-.8.7-2.2-.7-2.1-.4-.5.3,1.2.7-.1,1.9.4,1.8,2.4.2.2.6-2,.8-.3,1.2-1.2.4-2.1.6-.5.9-2.2.2-1.6-1.5-.8-2.8-.8-1-1-.6,1.4-1.4-.1-.6-.8-.8-.6-1.9.2-2,.6-.9.5-1.5-1-.5-1.6.3-2-.1-1.1.3-2-2.4-1.6-.4-3.6.3-.7-1-.7-.2-.1-.6.3-1-.2-1.1-.6-.6-.4-1.3-1.4-.2.8-1.7.4-2,.8-1.1,1.1-.8.7-1.4Z" transform="translate(0 0)" style="fill: #e3e3e3;stroke: rgba(9,120,136,.5);"/>
  </g>
  <g class="continent" id="oceania">
    <path stroke-width="0.5" id="AU" d="M883.4,588.61l2.7,1.3,1.5-.5,2.2-.7,1.7.2.2,4.4-1,1.3-.3,3.1-1-1-2,2.7-.6-.2-1.7-.1-1.7-3.3-.4-2.5-1.6-3.2.1-1.7Zm-5.1-86.1,1,2.2,1.8-1.1.9,1.2,1.3,1.1-.3,1.3.6,2.5.4,1.5.7.4.8,2.5-.3,1.5.9,2,3,1.5,2,1.4,1.9,1.3-.4.7,1.6,1.9,1.1,3.2,1.1-.7,1.1,1.3.7-.5.5,3.2,2,1.9L902,534l2.2,2.5.8,2.5.1,1.8-.2,1.9,1.3,2.7-.2,2.8-.5,1.5-.8,2.9.1,1.9-.5,2.3-1.2,3-2.1,1.6-1,2.6-.9,1.7-.8,2.9-1.1,1.7-.7,2.6-.4,2.4.1,1.1-1.6,1.2-3.1.1-2.6,1.5-1.3,1.4-1.7,1.5-2.3-1.6-1.7-.6.4-1.8-1.5.7-2.5,2.6-2.4-1-1.6-.6-1.6-.2-2.7-1-1.8-2.2-.5-2.7-.7-1.8-1.4-1.4-2.7-.4.9-1.7-.7-2.5-1.4,2.3-2.5.6,1.5-1.9.4-2,1.1-1.7-.2-2.5-2.3,2.8-1.8,1.2-1.1,2.7-2.2-1.4.1-1.8-1.8-2.4-1.5-1.2.5-.8-3.6-2-2-.1-2.7-1.6-5,.3-3.6,1.2-3.2,1.1-2.7-.2-3,1.7-2.4.8-.5,1.8-1,1.4-2.4.1-1.8.3-2.5-.6-2,.4-1.9.2-1.7,1.8-.8-.2-1.4,1-1.3,1.1-2-.1h-1.9l-3-2.2-1.5-.6.1-1.9,1.4-.5.5-.8-.1-1.2.3-2.3-.3-2-1.5-3.3-.5-1.8.1-1.8-1.1-2.1-.1-.9-1.2-1.3-.3-2.5-1.6-2.5-.4-1.3,1.2,1.3-1-2.9,1.4.9.8,1.2v-1.6l-1.4-2.4-.3-1-.7-.9.3-1.8.6-.8.4-1.5-.3-1.8,1.2-2.2.2,2.3,1.2-2.1,2.3-1,1.4-1.3,2.1-1.1,1.3-.2.8.4,2.2-1.1,1.7-.3.4-.7.7-.3,1.5.1,3-.9,1.5-1.3.7-1.6,1.6-1.5.1-1.2.1-1.6,2-2.5,1.2,2.5,1.2-.6-1-1.4.9-1.4,1.2.6.3-2.2,1.5-1.4.7-1.1,1.4-.5v-.8l1.2.3v-.7l1.2-.4,1.4-.4,2.1,1.3,1.6,1.7H837l1.8.3-.6-1.6,1.3-2.3,1.3-.8-.4-.7,1.2-1.6,1.7-1,1.4.3,2.4-.5v-1.5l-2-.9,1.5-.4,1.9.7,1.5,1.2,2.4.7.8-.3,1.7.9,1.6-.8,1,.2.7-.5,1.3,1.4-.8,1.5-1.1,1.2-1,.1.3,1.1-.8,1.4-1,1.4.2.8,2.2,1.6,2.2.9,1.4,1,2,1.7h.8l1.5.8.4.9,2.7,1,1.8-1,.5-1.6.6-1.3.3-1.6.8-2.3-.4-1.4.2-.8-.3-1.6.4-2.2.5-.6-.4-1,.7-1.5.5-1.6.1-.8,1-1.1.8,1.4.2,1.8.7.3.1,1.2,1,1.5.2,1.6Z" transform="translate(0 0)" style="fill: #e3e3e3;stroke: rgba(9,120,136,.5);"/>
    <path stroke-width="0.5" id="BN" d="M796,451.21l1.1-1,2.4-1.5-.1,1.4-.2,1.8-1.3-.1-.6.9Z" transform="translate(0 0)" style="fill: #e3e3e3;stroke: rgba(9,120,136,.5);"/>
    <path stroke-width="0.5" id="FJ" d="M981,509l-.3,1.4-.2.2-1.8.7-1.8.6-.4-1.1,1.4-.6.9-.2,1.6-.9Zm-5.8,4.3-1.3-.4-1.1,1,.3,1.3,1.5.4,1.7-.4.5-1.5-1-.8Z" transform="translate(0 0)" style="fill: #e3e3e3;stroke: rgba(9,120,136,.5);"/>
    <path stroke-width="0.5" id="NC" d="M940.6,523.91l2.3,1.9,1.5,1.4-1.1.7-1.6-.8-2-1.3-1.8-1.6-1.8-2.1-.4-1h1.2l1.6,1,1.2,1Z" transform="translate(0 0)" style="fill: #e3e3e3;stroke: rgba(9,120,136,.5);"/>
    <path stroke-width="0.5" id="NZ" d="M960.9,589l.6,1.5,2-1.5.8,1.6v1.6l-1,1.7-1.8,2.8-1.4,1.5,1,1.9h-2.2l-2.4,1.5-.8,2.6-1.6,4-2.2,1.8-1.4,1.2-2.6-.1-1.8-1.3-3-.3-.5-1.5,1.5-3,3.5-3.9,1.8-.7,2-1.5,2.4-2,1.7-2,1.2-2.8,1.1-1,.4-2.1,2-1.7Zm4.4-17,2,3.7.1-2.4,1.3,1,.4,2.7,2.3,1.2,1.9.3,1.6-1.3,1.4.4-.7,3.2-.8,2.1-2.1-.1-.8,1.1.3,1.6-.4.7-1.1,2-1.4,2.5-2.2,1.5-.5-1-1.1-.8,1.6-3-.9-2-3-1.5.1-1.3,2-1.2.5-2.7-.1-2.3-1.1-2.3.1-.6-1.3-1.4-2.2-3-1.2-2.4,1-.3,1.5,1.9,2.2.9Z" transform="translate(0 0)" style="fill: #e3e3e3;stroke: rgba(9,120,136,.5);"/>
    <path stroke-width="0.5" id="SB" d="M930.3,493.21l.8,1h-2l-1.1-1.7,1.7.7Zm-3.5-1.8-1.1.1-1.7-.3-.6-.4.2-1.1,1.8.4.9.6Zm2.3-.8-.4.5-2.1-2.5-.6-1.7h1l1,2.2Zm-5.1-3.5.1.6-2.2-1.2-1.5-1-1-.9.4-.3,1.3.7,2.3,1.3Zm-6.5-2.8-.6.2-1.2-.6-1.2-1.1.1-.5,1.7,1.2Z" transform="translate(0 0)" style="fill: #e3e3e3;stroke: rgba(9,120,136,.5);"/>
    <path stroke-width="0.5" id="TF" d="M669,619.41l1.8,1.3,2.6.5.1.8-.8,2-4.2.4-.1-2.3.4-1.8Z" transform="translate(0 0)" style="fill: #e3e3e3;stroke: rgba(9,120,136,.5);"/>
    <path stroke-width="0.5" id="VU" d="M946.4,510.31l-.9.4-1-1.3.1-.8Zm-2.1-4.4.5,2.3-.8-.4-.6.2-.4-.8-.1-2.2Z" transform="translate(0 0)" style="fill: #e3e3e3;stroke: rgba(9,120,136,.5);"/>
  </g>
  <g class="continent" id="asia">
    <path stroke-width="0.5" id="LB" d="M576.2,365.31l-.8.1-.3.6h-.9l1-2.7,1.4-2.4.1-.1,1.3.2.5,1.3-1.5,1.3Z" transform="translate(0 0)" style="fill: #e3e3e3;stroke: rgba(9,120,136,.5);"/>
    <path stroke-width="0.5" id="PG" d="M912.8,482.81l-.8.3-1.2-1.1-1.2-1.8-.6-2.1.4-.3.3.8.8.6,1.4,1.8,1.3,1Zm-10.9-3.7-1.5.2-.4.8-1.5.7-1.4.7h-1.6l-2.3-.8-1.6-.8.2-.9,2.5.4,1.5-.2.4-1.3.4-.1.3,1.5,1.6-.2.8-1,1.6-1-.3-1.6h1.7l.6.5-.1,1.5Zm-13.4,5.3,2.5,1.8,1.8,3,1.6-.1-.1,1.2,2.2.5-.8.5,3,1.2-.3.8-1.9.2-.7-.7-2.4-.3-2.8-.4-2.2-1.8-1.6-1.5-1.5-2.5-3.7-1.2-2.4.8-1.7.9.4,2.1-2.2,1-1.6-.5-2.9-.1V471l4.9,1.9,5.2,1.6,1.9,1.4,1.6,1.4.4,1.6,4.7,1.7.7,1.5-2.6.3Zm16.6-8.1-.9.7-.5-1.6-.7-1.1-1.3-.9-1.6-1.2-2-.8.8-.7,1.5.8,1,.6,1.2.7,1.1,1.2,1.1.9Z" transform="translate(0 0)" style="fill: #e3e3e3;stroke: rgba(9,120,136,.5);"/>
    <path stroke-width="0.5" id="TL" d="M826.2,488.61l.3-.7,2.4-.6,2-.1.9-.3,1.1.3-1,.8-2.9,1.2-2.4.8v-.9Z" transform="translate(0 0)" style="fill: #e3e3e3;stroke: rgba(9,120,136,.5);"/>
    <path stroke-width="0.5" id="ID" d="M814.2,492.51H813l-3.7-2,2.6-.6,1.5.9,1,.9Zm10.5-.3-2.4.6-.3-.3.2-1,1.2-1.7,2.8-1.1.3.6v.9Zm-18.4-5.8,1,.8,1.7-.2.7,1.2-3.2.6-1.9.4h-1.5l1-1.6h1.5Zm14.1,0L820,488l-4.2.8-3.7-.4v-1l2.2-.6,1.8.8,1.9-.2Zm-40.1-3.7,5.4.3.6-1.2,5.2,1.4,1,1.8,4.2.5,3.4,1.7-3.2,1.1-3.1-1.1-2.5.1-2.9-.2-2.6-.5-3.2-1.1-2.1-.3-1.2.4-5.1-1.2-.5-1.2-2.6-.2,1.9-2.7,3.4.2,2.3,1.1,1.2.2Zm73.2-1.6-1.4,1.9-.3-2.1.5-1,.6-1,.6.8Zm-21-7.7-1,.9-1.9-.5-.5-1.2,2.8-.1Zm9.1-1,1,2.1-2.4-1.1-2.3-.2-1.6.2-1.9-.1.7-1.5,3.5-.1Zm10.3-5.4.8,4.5,2.9,1.7,2.3-3,3.2-1.7h2.5l2.4,1,2.1,1,3,.5v18.3l-2.5-2.3-2.8-.6-.7.8-3.5.1,1.2-2.3,1.8-.8-.7-3-1.3-2.4-5.4-2.4-2.3-.2-4.2-2.6-.8,1.4-1.1.2-.6-1V473l-2.1-1.4,3-1h2l-.2-.7h-4.1l-1.1-1.7-2.5-.5-1.2-1.4,3.8-.7,1.4-.9,4.5,1.1Zm-25-7.2-2.2,2.8-2.1.5-2.7-.5-4.7.1-2.5.4-.4,2.1,2.5,2.5,1.5-1.3,5.2-1-.2,1.3-1.2-.4-1.2,1.6-2.5,1.1,2.7,3.6-.5,1,2.5,3.2v1.8l-1.5.8-1.1-1,1.4-2.3-2.8,1.1-.7-.8.4-1.1-2-1.6.2-2.7-1.9.9.2,3.2.1,4-1.8.4-1.2-.8.8-2.6-.4-2.7h-1.2l-.9-1.9,1.2-1.8.4-2.2,1.4-4.2.6-1.1,2.4-2.1,2.2.8,3.5.4,3.2-.1,2.8-2Zm9.7.8-.2,2.4-1.5-.3-.4,1.7,1.2,1.5-.8.3-1.1-1.8-.8-3.6.6-2.2.9-1,.2,1.5,1.7.2Zm-30.3-1.9,3.1,2.6-3.3.3-.9,1.9.1,2.5-2.7,1.9-.1,2.8-1.1,4.3-.4-1-3.2,1.3-1.1-1.7-2-.2-1.4-.9-3.3,1-1-1.4-1.8.1-2.3-.3-.4-3.7-1.4-.8-1.3-2.4-.4-2.4.3-2.6,1.7-1.9.5,1.9,1.9,1.6,1.8-.6,1.8.2,1.6-1.4,1.3-.2,2.7.8,2.3-.6,1.4-3.9,1.1-1,1-3.2H804l2.4.5-1.6,2.5,2.1,2.6Zm-33.8,21.4-3.1.1-2.4-2.3-3.6-2.3-1.2-1.7-2.1-2.3-1.4-2.1-2.1-3.9-2.5-2.3-.8-2.4-1-2.2-2.5-1.8-1.5-2.4-2.1-1.6-2.9-3.1-.2-1.4,1.8.1,4.3.5,2.5,2.7,2.2,1.9,1.5,1.2,2.7,3h2.8l2.4,1.9,1.6,2.3,2.1,1.3-1.1,2.3,1.6,1,1,.1.5,1.9,1,1.6,2.1.2,1.4,1.8-.7,3.5Z" transform="translate(0 0)" style="fill: #e3e3e3;stroke: rgba(9,120,136,.5);"/>
    <path stroke-width="0.5" id="MY" d="M759.2,446.51l.2,1.4,1.8-.3.9-1.1.6.3,1.7,1.7,1.2,1.9.2,1.9-.3,1.1.3,1,.2,1.6,1,.8,1.1,2.5v.9l-2,.2-2.7-2.1-3.3-2.2-.3-1.4-1.6-1.9-.4-2.3-1-1.5.3-2-.6-1.2.5-.5Zm49.1,4.8-2.1,1-2.4-.5h-3.2l-1,3.2-1.1,1-1.4,3.9-2.3.6-2.7-.8-1.3.2-1.6,1.4-1.8-.2-1.8.6-1.9-1.6-.5-1.9,2,1,2.2-.5.6-2.4,1.2-.5,3.4-.6,2-2.2,1.4-1.8,1.3,1.5.6-1,1.3.1.2-1.8.1-1.4,2.2-2,1.4-2.2h1.1l1.4,1.4.1,1.2,1.8.8,2.3.8-.2,1.1-1.9.1Z" transform="translate(0 0)" style="fill: #e3e3e3;stroke: rgba(9,120,136,.5);"/>
    <path stroke-width="0.5" id="AE" d="M620.4,394.11l.5-.1.1.8,2.2-.5,2.3.1,1.7.1,1.9-2.1,2.1-2,1.8-1.9.5,1.1.4,2.4h-1.4l-.2,2,.5.4-1.3.6v1.2l-.8,1.3-.1,1.2-.6.6-8.4-1.5-1.1-3.1Z" transform="translate(0 0)" style="fill: #e3e3e3;stroke: rgba(9,120,136,.5);"/>
    <path stroke-width="0.5" id="AF" d="M647.4,357.31l2.9,1.3,2.1-.5.6-1.5,2.2-.5,1.6-1.1.6-2.8,2.4-.7.4-1.2,1.3.9.8.1h1.6l2.1.7.8.4,2-1.1,1,.7.9-1.6,1.7.1.4-.5.3-1.4,1.2-1.2,1.5.8-.3,1.1.8.2-.3,2.9,1.1,1.2,1-.7,1.2-.3L681,351l1.9.3h2.9l.5,1-1.6.4-1.4.6-3.2.4-3,.7-1.6,1.5.7,1.5.3,1.7-1.4,1.4.1,1.3-.8,1.2-2.7-.1,1.1,2.2-1.8.9-1.2,2,.1,2-1.1.9-1-.3-2.1.4-.3.9h-2.1l-1.6,1.8-.1,2.8-3.7,1.3-2-.3-.6.7-1.7-.4-2.8.5-4.7-1.6,2.5-2.9-.2-2.1-2.1-.6-.2-2.1-.9-2.6,1.2-1.8-1.2-.5.8-2.5Z" transform="translate(0 0)" style="fill: #e3e3e3;stroke: rgba(9,120,136,.5);"/>
    <path stroke-width="0.5" id="AM" d="M598,337.91l3.9-.6.6,1,1.1.6-.6.9,1.5,1.3-.8,1.2,1.2,1,1.3.6.1,2.5-1,.1-1.1-2.1v-.6H603l-.8-1-.6.1-1.1-1.1-2.1-.9.3-1.8Z" transform="translate(0 0)" style="fill: #e3e3e3;stroke: rgba(9,120,136,.5);"/>
    <path stroke-width="0.5" id="AZ" d="M601.9,342.91l.8,1h1.2v.6l1.1,2.1-1.9-.5-1.4-1.7-.4-1.4Zm6.7-5.5,1.2.2.5-1,1.7-1.5,1.5,2,1.4,2.6,1.3.2.9,1-2.3.3-.5,2.8-.5,1.3-1,.8.1,1.8-.7.2-1.8-1.9,1-1.8-.9-1-1,.3-3.3,2.7-.1-2.5-1.3-.6-1.2-1,.8-1.2-1.5-1.3.6-.9-1.1-.6-.6-1,.7-.6,2.1,1.1,1.5.2.4-.4-1.4-2,.7-.5.8.1Z" transform="translate(0 0)" style="fill: #e3e3e3;stroke: rgba(9,120,136,.5);"/>
    <path stroke-width="0.5" id="BD" d="M735.6,400.81l-.1,2.1-1-.5.2,2.4-.8-1.6-.2-1.5-.5-1.4-1.2-1.8-2.6-.1.3,1.2-.9,1.7-1.2-.6-.4.5-.8-.3-1.1-.3-.4-2.5-1-2.3.5-1.8-1.7-.8.6-1.1,1.8-1.1-2-1.6,1-2.1,2.2,1.3,1.3.2.2,2.1,2.7.4h2.6l1.6.5-1.3,2.6-1.3.2-.9,1.7,1.5,1.6.5-1.9h.8Z" transform="translate(0 0)" style="fill: #e3e3e3;stroke: rgba(9,120,136,.5);"/>
    <path stroke-width="0.5" id="BT" d="M732.9,383.21l1.1,1-.2,1.9-2.3.1-2.4-.2-1.8.5-2.5-1.2v-.6l1.8-2.3,1.5-.8,2,.7,1.5.1Z" transform="translate(0 0)" style="fill: #e3e3e3;stroke: rgba(9,120,136,.5);"/>
    <path stroke-width="0.5" id="CN" d="M785.1,410.81l-2.4,1.4-2.3-.9-.1-2.5,1.4-1.3,3.1-.8,1.6.1.6,1.1-1.2,1.3Zm48.6-107.5,4.9,1.4,3.3,3,1.1,4h4.3l2.4-1.6,4.6-1.2-1.5,3.8-1.1,1.5-1,4.5-1.9,3.9-3.4-.7-2.4,1.4.7,3.4-.4,4.5-1.4.1v1.9l-1.8-2.2-1.1,2.1-4.3,1.6.4,2-2.4-.1-1.3-1.2-1.9,2.6-3.1,2-2.3,2.4-3.9,1.1-2.1,1.7-3,1,1.5-1.7-.6-1.4,2.2-2.5-1.5-1.9-2.4,1.3-3.2,2.5-1.7,2.3-2.8.2-1.4,1.7,1.5,2.4,2.3.6.1,1.6,2.2,1,3.1-2.5,2.5,1.4,1.8.1.5,1.8-4,1-1.3,1.9-2.7,1.7-1.4,2.4,3,1.9,1.1,3.3,1.7,3,1.9,2.5v2.4l-1.8.9.7,1.7,1.7,1-.4,2.6-.7,2.5-1.6.3-2,3.4-2.3,4.1-2.6,3.7-3.9,2.8-3.9,2.5-3.2.4-1.7,1.3-1-1-1.6,1.5-3.9,1.5-3,.5-1,3.1-1.5.2-.7-2.2.7-1.2-3.8-1-1.3.5-2.8-.8-1.3-1.2.4-1.7-2.6-.5-1.3-1.1-2.4,1.6-2.7.4h-2.2l-1.5.7-1.5.4.4,3.4-1.5-.1-.2-.7-.1-1.2-2.1.9-1.2-.5-2.1-1.1.8-2.5-1.8-.6-.7-2.8-3,.5.3-3.6,2.7-2.6.1-2.6-.1-2.4-1.2-.8-.9-1.9-1.6.2-3-.5,1-1.3-1.3-2-2,1.4-2.4-.8-3.2,2-2.5,2.4-2.3.4-1.2-.9-1.5-.1-2-.7-1.5.8-1.8,2.3-.2-2.5-1.7.7-3.3-.3-3.2-.7-2.3-1.4-2.2-.6-.9-1.5-1.6-.5-2.8-2.1-2.2-1-1.2.8-3.9-2.3-2.8-2.1-.8-3.6,2,.4.1-1.7-1.1-1.7.3-2.7-3-4-4.6-1.4-.8-2.7-2.1-1.6-.5-1-.4-2,.1-1.4-1.7-.8-.9.4-.7-3.3.8-.8-.4-.9,2.7-1.7,1.9-.7,3,.5,1.1-2.4,3.6-.4,1-1.5,4.4-2,.4-.9-.2-2.2,1.9-1-2.5-6.8,5.5-1.6,1.4-.9,2-7.3,5.6,1.4,1.6-1.9.1-4.2,2.3-.4,2.1-2.8,1.1-.4.7,3,2.4,2.2,4,1.6,1.9,3.3-1.1,4.7,1,1.7,3.3.7,3.8.5,3.4,2.5,1.7.4,1.3,3.6,1.7,2.3,3.1-.1,5.8.9,3.7-.5,2.8.6,4.2,2.3H769l1.2,1.2,3.3-2,4.5-1.3,4.2-.1,3.3-1.3,2-2,2-1.3-.5-1.3-.9-1.5,1.5-2.5,1.6.4,2.9.8,2.8-2.1,4.3-1.5,2-2.7,2-1.2,4.1-.5,2.2.5.3-1.5-2.5-2.9-2.2-1.3-2.2,1.5-2.8-.6-1.6.5-.7-1.7,2-4.2,1.4-3.2,3.4,1.6,4-2.7v-1.9l2.5-4.7,1.6-1.5v-2.5l-1.5-1.1,2.3-2.3,3.5-.8,3.7-.1,4.2,1.4,2.5,1.7,1.7,4.6,1,1.9,1,2.7Z" transform="translate(0 0)" style="fill: #e3e3e3;stroke: rgba(9,120,136,.5);"/>
    <path stroke-width="0.5" id="CY" d="M570.8,358.71l1.9-1.5-2.5,1-2-.1-.4.8h-.2l-1.3.1.6,1.4,1.4.4,2.9-1.4-.1-.3Z" transform="translate(0 0)" style="fill: #e3e3e3;stroke: rgba(9,120,136,.5);"/>
    <path stroke-width="0.5" id="GE" d="M592.3,336.31l.4-1.6-.7-2.6-1.6-1.4-1.5-.4-1-1.2.3-.5,2.4.7,4.1.6,3.8,1.8.5.7,1.7-.6,2.6.8.8,1.5,1.8.9-.7.5,1.4,2-.4.4-1.5-.2-2.1-1.1-.7.6-3.9.6-2.7-1.8Z" transform="translate(0 0)" style="fill: #e3e3e3;stroke: rgba(9,120,136,.5);"/>
    <path stroke-width="0.5" id="IL" d="M575.9,367.21l-.5,1-1-.5-.6,2.2.7.4-.7.5-.1.9,1.3-.5.1,1.3-1.4,5.2-1.8-5.5.8-1.1-.2-.2.7-1.5.6-2.5.4-.8h1l.3-.6.8-.1v1.4l-.4.4Z" transform="translate(0 0)" style="fill: #e3e3e3;stroke: rgba(9,120,136,.5);"/>
    <path stroke-width="0.5" id="IN" d="M694,357.81l3,4-.3,2.7,1.1,1.7-.1,1.7-2-.4.8,3.6,2.8,2.1,3.9,2.3-1.8,1.5-1.1,3,2.7,1.2,2.6,1.6,3.7,1.8,3.8.4,1.6,1.6,2.2.3,3.4.7h2.3l.3-1.2-.4-2,.2-1.3,1.7-.7.2,2.5v.6l2.5,1.2,1.8-.5,2.4.2,2.3-.1.2-1.9-1.1-1,2.3-.4,2.5-2.4,3.2-2,2.3.8,2-1.3,1.3,2-1,1.3,3,.5.2,1.2-1,.6.2,1.9-2-.6-3.6,2.2.1,1.8-1.5,2.6-.2,1.5-1.2,2.5-2.2-.7L737,398l-.6,1,.3,1.3-1.4.7-1.5-4.8H733l-.5,1.9-1.5-1.6.9-1.7,1.3-.2,1.3-2.6-1.6-.5h-2.6l-2.7-.4-.2-2.1-1.3-.2-2.2-1.3-1,2.1,2,1.6-1.8,1.1-.6,1.1,1.7.8-.5,1.8,1,2.3.4,2.5-.4,1.1h-1.9l-3.5.6.2,2.2-1.5,1.8-4,2-3.1,3.5-2.1,1.8-2.8,1.9V417l-1.4.7-2.5,1-1.3.2-.8,2.2.6,3.8.1,2.4-1.2,2.7v4.8l-1.4.1-1.3,2.2.8.9-2.6.8-.9,1.9-1.1.8-2.6-2.6-1.3-4L688,432l-1-1.3-1.5-2.7-.7-3.6-.5-1.8-2.5-4-1.2-5.6-.8-3.8v-3.6l-.5-2.8-4.1,1.8-2-.4-3.7-3.6,1.4-1.1-.8-1.2-3.3-2.6,1.9-2h6.2l-.6-2.6-1.6-1.6-.3-2.4-1.8-1.4,3.1-3.3,3.3.2,2.9-3.3,1.8-3.3,2.7-3.2v-2.3l2.4-1.9-2.3-1.6-1-2.2-1-3,1.4-1.5,4.3.8,3.1-.5Z" transform="translate(0 0)" style="fill: #e3e3e3;stroke: rgba(9,120,136,.5);"/>
    <path stroke-width="0.5" id="IQ" d="M603.1,356.21l1.8,1,.2,2-1.4,1.2-.6,2.6,1.9,3.2,3.4,1.8,1.5,2.5-.5,2.4h.9v1.7l1.5,1.7-1.7-.1-1.9-.3-2.1,3.1-5.2-.3-7.9-6.5-4.2-2.3-3.4-.9-1.1-4,6.2-3.5,1.1-4.1-.3-2.5,1.5-.9,1.4-2.2,1.2-.6,3.3.5,1,.9,1.3-.6Z" transform="translate(0 0)" style="fill: #e3e3e3;stroke: rgba(9,120,136,.5);"/>
    <path stroke-width="0.5" id="IR" d="M626.9,351.91l2.5-.7,2-2,1.9.1,1.2-.7,2,.3,3.1,1.8,2.2.4,3.2,3.1,2.1.1.2,2.9-1.1,4.2-.8,2.5,1.2.5-1.2,1.8.9,2.6.2,2.1,2.1.6.2,2.1-2.5,2.9,1.4,1.7,1.1,1.9,2.7,1.4.1,2.8,1.3.5.2,1.4-4,1.6-1.1,3.6-5.3-.9-3.1-.7-3.2-.4-1.2-3.8-1.3-.6-2.2.6-2.8,1.5-3.4-1-2.8-2.4-2.7-.9-1.9-3-2.1-4.3-1.5.5-1.8-1.1-1,1.3-1.5-1.7v-1.7h-.7l.5-2.4-1.5-2.5-3.4-1.8-1.9-3.2.6-2.6,1.4-1.2-.2-2-1.8-1-1.8-4.1-1.5-2.8.5-1.1-.9-4.1,1.9-1,.4,1.4,1.4,1.7,1.9.5,1-.1,3.3-2.7,1-.3.8,1.1-1,1.8,1.8,1.9.7-.2.9,2.6,2.7.7,2,1.8,4,.6,4.4-.9Z" transform="translate(0 0)" style="fill: #e3e3e3;stroke: rgba(9,120,136,.5);"/>
    <path stroke-width="0.5" id="JO" d="M575.4,368.31l.5-1,3.1,1.3,5.5-3.5,1.1,4-.5.5-5.6,1.6,2.8,3.3-.9.5-.5,1.1-2.1.4-.7,1.2-1.2,1-3.1-.5-.1-.5,1.4-5.2-.1-1.3.4-1v-1.9Z" transform="translate(0 0)" style="fill: #e3e3e3;stroke: rgba(9,120,136,.5);"/>
    <path class="country" stroke-width="0.5" id="JP" data-index="1" d="M853.3,362.41l.4,1.1-1.6,2-1.2-1.1-1.4.8-.7,2-1.8-1v-1.6l1.5-2,1.6.4,1.2-1.4Zm17.7-10.3-1.1,2.8.5,1.7-1.5,2.4-3.6,1.6-4.9.2-4,3.8-1.9-1.3-.1-2.5-4.9.8-3.3,1.6-3.3.1,2.8,2.5-1.9,5.6-1.8,1.4-1.4-1.3.7-3-1.8-1-1.1-2.3,2.7-1,1.5-2.1,2.8-1.8,2.1-2.3,5.6-1,3,.7,2.9-6.2,1.9,1.7,4.1-3.5,1.6-1.4,1.8-4.4-.5-4.1,1.2-2.3,3-.7,1.5,5.1-.1,2.9-2.6,3.6Zm8.3-25.9,2,.8,2-1.6.6,4.4-4.2,1-2.5,3.8-4.4-2.6-1.5,4.1-3.1.1-.4-3.7,1.4-2.9,3-.2.8-5.4.8-3.1,3.3,4.1Z" transform="translate(0 0)" style="fill: #c4c4c4;stroke: rgba(9,120,136,.5);"/>
    <path stroke-width="0.5" id="KG" d="M674.7,333.51l.6-1.7,1.8-.5,4.6,1.3.4-2.2,1.6-.8,4,1.6,1-.4,4.7.1,4.2.4,1.4,1.4,1.7.6-.4.9-4.4,2-1,1.5-3.6.4-1.1,2.4-3-.5-1.9.7-2.7,1.7.4.9-.8.8-5.3.6-3.5-1.2-3,.3.3-2.1,3.1.6,1-1.1,2.1.4,3.6-2.6-3.3-2-2,.9-2.1-1.4,2.3-2.4Z" transform="translate(0 0)" style="fill: #e3e3e3;stroke: rgba(9,120,136,.5);"/>
    <path class="country" stroke-width="0.5" id="KH" data-index="2" d="M765.9,434l-1.1-1.5-1.4-2.9-.7-3.4,1.8-2.4,3.6-.6,2.6.4,2.3,1.1,1.3-2,2.5,1.1.6,1.9-.3,3.4-4.7,2.2,1.2,1.7-2.9.2-2.4,1.1Z" transform="translate(0 0)" style="fill: #c4c4c4;stroke: rgba(9,120,136,.5);"/>
    <path stroke-width="0.5" id="KP" d="M842,333l.4.7-1.1-.2-1.2,1.3-.8,1.3.1,2.7-1.5.8-.5.6-1.1,1.1-1.9.6-1.2,1-.1,1.6-.3.4,1.1.6,1.6,1.6-.4.9-1.2.2-2,.2-1.1,1.6-1.3-.1-.2.3-1.4-.7-.3.7-.8.3-.1-.7-.7-.3-.8-.6.8-1.6.7-.4-.2-.6.7-1.9-.2-.6-1.6-.4-1.3-1,2.3-2.4,3.1-2,1.9-2.7,1.3,1.2,2.4.1-.4-2L839,333l1.1-2.1Z" transform="translate(0 0)" style="fill: #e3e3e3;stroke: rgba(9,120,136,.5);"/>
    <path stroke-width="0.5" id="KR" d="M835.6,346.91l2.4,4.2.7,2.3v4l-1,1.9-2.5.7-2.2,1.4-2.5.3-.3-1.9.5-2.6-1.2-3.6,2.1-.6-1.9-3,.2-.3,1.3.1,1.1-1.6,2-.2,1.2-.2Z" transform="translate(0 0)" style="fill: #e3e3e3;stroke: rgba(9,120,136,.5);"/>
    <path stroke-width="0.5" id="KW" d="M610.3,376.21l.6,1.4-.2.7.9,2.4-2,.1-.7-1.5-2.5-.3,2.1-3.1Z" transform="translate(0 0)" style="fill: #e3e3e3;stroke: rgba(9,120,136,.5);"/>
    <path stroke-width="0.5" id="KZ" d="M674.7,333.51l-1.6.7-3.7,2.6-1.2,2.6h-1l-.8-1.8-3.6-.1-.6-3.1h-1.4l.2-3.8-3.4-2.8-4.8.3-3.3.6-2.7-3.5-2.3-1.5-4.3-2.8-.5-.4-7.2,2.4.1,14.1-1.4.2-2-2.9-1.9-1.1-3.2.8-1.2,1.2-.2-.9.7-1.6-.5-1.3-3.2-1.3-1.3-3.5-1.5-1-.1-1.3,2.7.4.1-2.9,2.4-.6,2.4.6.5-3.9-.5-2.5-2.8.2-2.4-1-3.2,1.8-2.6.9-1.4-.7.3-2.1-1.8-2.8-2.1.1L606,309l1.6-3.2-.8-.9,2.2-4.8,2.9,2.5.3-3.2,5.8-4.9,4.4-.1,6.2,3.1,3.3,1.8,3-1.9,4.4-.1,3.6,2.3.8-1.3,3.9.2.7-2.1-4.5-3.1,2.7-2.2-.5-1.2,2.7-1.2-2-3.2,1.3-1.6,10.5-1.5,1.4-1.2,7-1.8,2.5-2,5,1.1.9,5,2.9-1.2,3.6,1.6-.2,2.6,2.7-.3,7-4.5-1,1.5,3.6,3.7,6.3,11.6,1.5-2.3,3.9,2.6,4-1.1,1.5.8,1.3,2.5,2,.8,1.2,1.9,3.6-.6,1.5,2.6-2.1,2.8-2.3.4-.1,4.2-1.6,1.9-5.6-1.4-2,7.3-1.4.9-5.6,1.6,2.5,6.8-1.9,1,.2,2.2-1.7-.6-1.4-1.4-4.2-.4-4.7-.1-1,.4-4-1.6-1.6.8-.4,2.2-4.6-1.3-1.8.5Z" transform="translate(0 0)" style="fill: #e3e3e3;stroke: rgba(9,120,136,.5);"/>
    <path stroke-width="0.5" id="LA" d="M770.8,423.61l.9-1.3.1-2.4-2.3-2.5-.2-2.9-2.1-2.4-2.1-.2-.6,1-1.6.1-.8-.5-3,1.7-.1-2.6.7-3.1-1.9-.1-.2-1.8-1.2-.9.6-1.1,2.4-1.9.2.7,1.5.1-.4-3.4,1.4-.4,1.6,2.4,1.3,2.7h3.5l1.1,2.6-1.8.8-.8,1.1,3.4,1.8,2.3,3.5,1.8,2.6,2.1,2,.7,2-.5,2.9-2.5-1.1-1.3,2Z" transform="translate(0 0)" style="fill: #e3e3e3;stroke: rgba(9,120,136,.5);"/>
    <path stroke-width="0.5" id="LK" d="M705.1,442.81l-.4,2.9-1.2.8-2.4.6-1.3-2.2-.5-4,1.3-4.6,1.9,1.6,1.3,2Z" transform="translate(0 0)" style="fill: #e3e3e3;stroke: rgba(9,120,136,.5);"/>
    <path stroke-width="0.5" id="MM" d="M754.9,406.41l-1.6,1.3-2,.1L750,411l-1.2.5,1.4,2.6,1.8,2.1,1.1,1.9-1,2.5-1,.5.7,1.4,1.9,2.3.3,1.6v1.3l1.1,2.6-1.5,2.7-1.4,2.9-.3-2.1.9-2.2-.9-1.7.2-3.1-1.1-1.5-.9-3.4-.5-3.7-1.2-2.4-1.8,1.5-3.2,2.1-1.6-.3-1.7-.7,1-3.6-.6-2.7-2.2-3.4.3-1.1-1.6-.4-2-2.4-.2-2.4,1,.5.1-2.1,1.4-.7-.3-1.3.6-1,.1-3.1,2.2.7,1.2-2.5.2-1.5,1.5-2.6-.1-1.8,3.6-2.2,2,.6-.2-1.9,1-.6-.2-1.2,1.6-.2.9,1.9,1.2.8.1,2.4-.1,2.6-2.6,2.6-.3,3.6,3-.5.7,2.8,1.8.6-.8,2.5,2.1,1.1,1.2.6,2-.9.1,1.2-2.4,1.9-.6,1.1Z" transform="translate(0 0)" style="fill: #e3e3e3;stroke: rgba(9,120,136,.5);"/>
    <path stroke-width="0.5" id="MN" d="M721.8,305.31l3-.7,5.3-3.7,4.3-2.1,2.4,1.4,2.9.1,1.9,2.1,2.8.1,4.1,1.1,2.7-3-1.1-2.6,2.9-4.7,3.1,1.9,2.5.5,3.3,1.1.5,3.3,4,1.8,2.6-.8,3.5-.6,2.8.6,2.8,2.1,1.7,2.2h2.6l3.5.7,2.6-1.1,3.7-.7,4.1-3.1,1.7.5,1.5,1.5,3.3-.4-1.4,3.2-2,4.2.7,1.7,1.6-.5,2.8.6,2.2-1.5,2.2,1.3,2.5,2.9-.3,1.5-2.2-.5-4.1.5-2,1.2-2,2.7-4.3,1.5-2.8,2.1-2.9-.8-1.6-.4-1.5,2.5.9,1.5.5,1.3-2,1.3-2,2.1-3.3,1.3-4.2.1-4.5,1.3-3.3,2-1.2-1.2h-3.4l-4.1-2.3-2.8-.6-3.7.5-5.8-.9-3.1.1-1.6-2.3-1.3-3.6-1.7-.4-3.4-2.5-3.8-.5-3.3-.7-1-1.7,1.1-4.7-1.9-3.3-4-1.6-2.4-2.2Z" transform="translate(0 0)" style="fill: #e3e3e3;stroke: rgba(9,120,136,.5);"/>
    <path stroke-width="0.5" id="NP" d="M722.8,382.91l-.2,1.3.4,2-.3,1.2h-2.3l-3.4-.7-2.2-.3-1.6-1.6-3.8-.4-3.7-1.8-2.6-1.6-2.7-1.2,1.1-3,1.8-1.5,1.2-.8,2.2,1,2.8,2.1,1.6.5.9,1.5,2.2.6,2.3,1.4,3.2.7Z" transform="translate(0 0)" style="fill: #e3e3e3;stroke: rgba(9,120,136,.5);"/>
    <path stroke-width="0.5" id="OM" d="M640.8,403.61l-1,2-1.3-.2-.6.7-.5,1.5.3,2-.3.4h-1.3l-1.8,1.1-.3,1.4-.6.6h-1.7l-1.1.7V415l-1.4.8-1.5-.3-1.9,1-1.3.2-.9-2-2.2-4.8,8.4-3,1.9-6-1.3-2.1.1-1.2.8-1.3v-1.2l1.3-.6-.5-.4.2-2h1.4l1.3,2.1,1.6,1.1,2.1.4,1.7.5,1.3,1.7.8,1,1,.4v.7l-1,1.8-.5.8ZM633.9,389l-.4.6-.5-1.1.8-1.1.3.3Z" transform="translate(0 0)" style="fill: #e3e3e3;stroke: rgba(9,120,136,.5);"/>
    <path class="country" stroke-width="0.5" id="PH" data-index="3" d="M830.1,440.31l.3,1.9.2,1.6-1,2.6-1-2.9-1.3,1.4.9,2.1-.8,1.3-3.3-1.6-.8-2,.9-1.3-1.8-1.3-.9,1.2-1.3-.1-2.1,1.6-.5-.8,1.1-2.4,1.8-.8,1.5-1.1,1,1.3,2.1-.8.5-1.3,2-.1-.2-2.2,2.3,1.3.2,1.4Zm-6.7-5.3-1,.9-.9,1.8-.9.8-1.7-2,.6-.8.7-.8.3-1.8,1.5-.2-.5,1.9,2.1-2.7Zm-15.4,2.7-3.7,2.7,1.4-2,2-1.7,1.7-2,1.5-2.8.5,2.3-1.8,1.6Zm9.5-7.3,1.7.9H821v1.2l-1.3,1.2-1.8.9-.1-1.3.2-1.5Zm10.1-.8.8,3.2-2.2-.8.1,1,.7,1.8-1.3.6-.1-2-.8-.1-.4-1.7,1.7.2v-1.1l-1.7-2.2,2.7.1Zm-11.1-2.5-.7,2.5-1.2-1.4-1.4-2.2,2.4.1Zm-.6-15.8,1.7.8.9-.8.2.8-.5,1.2,1,2.1-.7,2.4-1.7,1-.4,2.3.6,2.3,1.5.3,1.2-.3,3.5,1.6-.3,1.6.9.7-.3,1.3-2.2-1.4-1-1.5-.7,1-1.8-1.7-2.5.4-1.4-.6.1-1.2.9-.7-.8-.7-.4,1-1.4-1.6-.4-1.3-.1-2.8,1.1,1,.3-4.5.9-2.7Z" transform="translate(0 0)" style="fill: #c4c4c4;stroke: rgba(9,120,136,.5);"/>
    <path stroke-width="0.5" id="PK" d="M686.5,352.21l2.1,1.6.8,2.7,4.6,1.4-2.7,2.9-3.1.5-4.3-.8-1.4,1.5,1,3,1,2.2,2.3,1.6-2.4,1.9V373l-2.7,3.2-1.8,3.3-2.9,3.3-3.3-.2-3.1,3.3,1.8,1.4.3,2.4,1.6,1.6.6,2.6h-6.2l-1.9,2-2-.8-.8-2.2-2.2-2.3-5.2.6-4.6.1-4,.4,1.1-3.6,4-1.6-.2-1.4-1.3-.5-.1-2.8-2.7-1.4-1.1-1.9-1.4-1.7,4.7,1.6,2.8-.5,1.7.4.6-.7,2,.3,3.7-1.3.1-2.8,1.6-1.8h2.1l.3-.9,2.1-.4,1,.3,1.1-.9-.1-2,1.2-2,1.8-.9-1.1-2.2,2.7.1.8-1.2-.1-1.3,1.4-1.4-.3-1.7-.7-1.5,1.6-1.5,3-.7,3.2-.4,1.4-.6Z" transform="translate(0 0)" style="fill: #e3e3e3;stroke: rgba(9,120,136,.5);"/>
    <path stroke-width="0.5" id="PS" d="M575.4,368.31v2l-.4,1-1.3.5.1-.9.7-.5-.7-.4.6-2.2Z" transform="translate(0 0)" style="fill: #e3e3e3;stroke: rgba(9,120,136,.5);"/>
    <path stroke-width="0.5" id="QA" d="M618.2,392.61l-.2-2.2.8-1.6.8-.3.9,1v1.8l-.6,1.8-.8.2Z" transform="translate(0 0)" style="fill: #e3e3e3;stroke: rgba(9,120,136,.5);"/>
    <path stroke-width="0.5" id="SA" d="M595.7,417.61l-.4-1.2-.9-.9-.2-1.2-1.4-1-1.5-2.5-.8-2.4-1.9-2-1.2-.5-1.9-2.9-.3-2.1.1-1.8-1.6-3.4-1.3-1.2-1.5-.6-.9-1.8.2-.7-.8-1.6-.8-.7-1.1-2.3-1.7-2.5-1.4-2.2H573l.4-1.7.1-1.1.3-1.3,3.1.5,1.2-1,.7-1.2,2.1-.4.5-1.1.9-.5-2.8-3.3,5.6-1.6.5-.5,3.4.9,4.2,2.3,7.9,6.5,5.2.3,2.5.3.7,1.5,2-.1,1.1,2.7,1.4.7.5,1.1,1.9,1.3.2,1.3-.3,1,.4,1,.8.9.4,1,.4.8.8.6.8-.2.5,1.2.1.7,1.1,3.1,8.4,1.5.6-.6,1.3,2.1-1.9,6-8.4,3-8.1,1.1-2.6,1.3-2,3.1-1.3.5-.7-1-1.1.2-2.7-.3-.6-.3-3.2.1-.8.3-1.1-.8-.8,1.4.3,1.2Z" transform="translate(0 0)" style="fill: #e3e3e3;stroke: rgba(9,120,136,.5);"/>
    <path stroke-width="0.5" id="SY" d="M584.5,365l-5.5,3.5-3.1-1.3h-.1l.4-.5v-1.4l.7-1.8,1.5-1.3-.5-1.3-1.3-.2-.3-2.6.7-1.4.8-.8.8-.8.2-1.9.9.7,3.1-1,1.5.6h2.3l3.2-1.3,1.5.1,3.2-.5-1.4,2.2-1.5.9.3,2.5-1.1,4.1Z" transform="translate(0 0)" style="fill: #e3e3e3;stroke: rgba(9,120,136,.5);"/>
    <path stroke-width="0.5" id="TH" d="M763.4,429.61l-2.5-1.3-2.4.1.4-2.2h-2.5l-.2,3.1-1.5,4.1-.9,2.5.2,2.1,1.8.1,1.1,2.6.5,2.4,1.6,1.6,1.7.3,1.5,1.4-.9,1.2-1.9.3-.2-1.4-2.3-1.2-.5.5-1.1-1.1-.5-1.4-1.5-1.6-1.4-1.3-.5,1.6-.5-1.6.3-1.8.8-2.7,1.4-2.9,1.5-2.7-1.1-2.6v-1.3l-.3-1.6-1.9-2.3-.7-1.4,1-.5,1-2.5-1.1-1.9-1.8-2.1-1.4-2.6,1.2-.5,1.3-3.2,2-.1,1.6-1.3,1.6-.7,1.2.9.2,1.8,1.9.1-.7,3.1.1,2.6,3-1.7.8.5,1.6-.1.6-1,2.1.2,2.1,2.4.2,2.9,2.3,2.5-.1,2.4-.9,1.3-2.6-.4-3.6.6-1.8,2.4Z" transform="translate(0 0)" style="fill: #e3e3e3;stroke: rgba(9,120,136,.5);"/>
    <path stroke-width="0.5" id="TJ" d="M674.9,341l-1,1.1-3.1-.6-.3,2.1,3-.3,3.5,1.2,5.3-.6.7,3.3.9-.4,1.7.8-.1,1.4.4,2H683l-1.9-.3-1.7,1.6-1.2.3-1,.7-1.1-1.2.3-2.9-.8-.2.3-1.1-1.5-.8-1.2,1.2-.3,1.4-.4.5-1.7-.1-.9,1.6-1-.7-2,1.1-.8-.4,1.6-3.6-.6-2.7-2.1-.9.7-1.6,2.3.2,1.3-2,.9-2.4,3.8-.9-.6,1.7.4,1Z" transform="translate(0 0)" style="fill: #e3e3e3;stroke: rgba(9,120,136,.5);"/>
    <path stroke-width="0.5" id="TM" d="M647.4,357.31l-.2-2.9-2.1-.1-3.2-3.1-2.2-.4-3.1-1.8-2-.3-1.2.7-1.9-.1-2,2-2.5.7-.5-2.5.4-3.7-2.2-1.2.7-2.5-1.9-.2.6-3.1,2.6.9,2.5-1.2-2-2.2-.8-2.1-2.3,1-.3,2.7-.9-2.4,1.2-1.2,3.2-.8,1.9,1.1,2,2.9,1.4-.2,3.2-.1-.5-1.9,2.4-1.3,2.4-2.2,3.8,2,.3,3,1.1.8,3-.2.9.7,1.4,3.8,3.2,2.5,1.8,1.7,2.9,1.8,3.7,1.5-.1,2.2-.8-.1-1.3-.9-.4,1.2-2.4.7-.6,2.8-1.6,1.1-2.2.5-.6,1.5-2.1.5Z" transform="translate(0 0)" style="fill: #e3e3e3;stroke: rgba(9,120,136,.5);"/>
    <path stroke-width="0.5" id="TW" d="M817.2,393.71l-1.7,4.9-1.2,2.5-1.5-2.5-.3-2.2,1.6-3,2.2-2.3,1.3.9Z" transform="translate(0 0)" style="fill: #e3e3e3;stroke: rgba(9,120,136,.5);"/>
    <path stroke-width="0.5" id="RU" d="M1008.8,216.21l-2.8,3-4.6.7-.1,6.5-1.1,1.4-2.6-.2-2.1-2.3-3.7-1.9-.6-2.9-2.8-1.1-3.2.9-1.5-2.4.6-2.6-3.4,1.6,1.3,3.2-1.6,2.8h0l-3.6,2.9-3.6-.5,2.5,3.4,1.7,5.2,1.3,1.7.3,2.5-.7,1.6-5.2-1.3-7.8,4.5-2.5.7-4.3,4.1-4.1,3.5-1,2.6-4-3.9-7.3,4.4-1.3-2.1-2.7,2.4-3.8-.8-.9,3.6-3.4,5.2.1,2.1,3.2,1.2-.4,7.5-2.6.2-1.2,4.1,1.2,2.1-4.9,2.5-1,5.4-4.2,1.1-.8,4.7-4,4.2-1-3.1-1.2-6.7-1.6-10.6,1.3-7,2.4-3.1.2-2.4,4.4-1.2,5-6.8,4.8-5.7,5-4.6,2.2-8.4-3.4.5-1.7,4.9-7.1,6.4-2.3-7.1-7.2,2-7,9.6,2.3,3.4-6.3,1.4-4.3.6.2-3.9-4.4-.8-3.5,2.7-8.6-.9-9.3,1.5-9.1,10.3-10.8,11.8,4.4.6,1.4,3,2.7,1,1.8-2.4,3.1.3,4,5.2.1,3.9-2.2,4.5-.2,5.3-1.3,6.9-4.2,6-.9,2.8-3.8,4.8-3.8,4.5-1.8,2.3-3.7,2.2h-1.8l-1.8-1.9-3.8,2.8-.4,1.3-.4-.7V331l1.4-.1.4-4.5-.7-3.4,2.4-1.4,3.4.7,1.9-3.9,1-4.5,1.1-1.5,1.5-3.8-4.6,1.2-2.4,1.6h-4.3l-1.1-4-3.3-3-4.9-1.4-1-4.3-1-2.7-1-1.9-1.7-4.6-2.5-1.7-4.2-1.4-3.7.1-3.5.8-2.3,2.3,1.5,1.1v2.5l-1.6,1.5-2.5,4.7v1.9l-4,2.7-3.4-1.6-3.3.4-1.5-1.5-1.7-.5-4.1,3.1-3.7.7-2.6,1.1-3.5-.7h-2.6l-1.7-2.2-2.8-2.1-2.8-.6-3.5.6-2.7.8-4-1.8-.5-3.3-3.3-1.1-2.5-.5-3.1-1.9-2.9,4.7,1.1,2.6-2.7,3-4-1.1-2.8-.2-1.9-2-2.9-.1-2.4-1.4-4.3,2.1-5.3,3.7-3,.7-1.1.4-1.5-2.6-3.6.6-1.2-1.8-2-.9-1.3-2.5-1.5-.8-4,1.1-3.9-2.6-1.5,2.3L694,286.5l-3.6-3.7,1-1.5-7,4.5-2.7.3.2-2.6-3.6-1.6-2.9,1.2-.9-5-5-1.1-2.5,2-7,1.8-1.4,1.2-10.5,1.7-1.3,1.6,2,3.2-2.7,1.2.5,1.2-2.7,2.2,4.5,3.1-.7,2.1-3.9-.2-.8,1.3-3.6-2.3-4.5.1-3,1.9-3.3-1.8-6.2-3.1-4.4.1-5.8,4.9-.3,3.2-2.9-2.5-2.2,4.8.8.9-1.6,3.2,2.4,2.8,2.1-.1,1.8,2.8-.3,2.1,1.4.7-1.3,2.4-2.7.7-2.8,4.1,2.5,3.7-.3,2.6,3.1,4.5-1.7,1.5-.5,1-1.2-.2-1.9-2.3-.8-.1-1.8-.9-.9-1.5-2.6-.8-1.7.6-.5-.7-3.8-1.8-4.1-.6-2.4-.7-.3.5-3.6-3.3-3.2-1.5-2.4-2.3,2-.6,2.3-3.4-1.6-1.6,4.1-1.7-.1-.9-2.5.7.1-1.8,1.5-1.2,2.7-.3.4-1.4-.6-2.3,1.1-2.2V304l-4.1-1.4h-1.6l-1.7-2-2.2.7-3.6-1.5.1-.9-1-1.9-2.2-.2-.2-1.4.7-.9-1.8-2.6-2.9.4-.8-.2-.7,1-1-.2-.7-2.9-.7-1.6.5-.4,2.3.2,1.1-1-.8-1.2-1.9-.8.2-.9-1.1-.9-1.8-3.1.6-1.3-.3-2.3-2.7-1.2-1.5.6-.4-1.2-3-1.3-.9-3-.2-2.5-1.3-1.2,1.2-1.7-.8-5,2-3.1-.4-1,3.2-3.1-2.9-2.7,6-7.4,2.6-3.4,1-3.1-4.2-4.3,1.2-4.1-2.5-4.9,1.9-5.8-3.3-8,2.6-5.5-4.3-5,.4-5.4,2.3-.7,4.8-3.2,2.9-2.8,4.6,4.9,7.7,1.9,10.6,8.6,2.2,3.5.2,4.8-3.1,3.7-4.6,1.9-12.5-5.3-2.1.9,4.6,5.1.2,3.1.2,6.8,3.6,2,2.2,1.7.4-3.1-1.7-2.8,1.8-2.5,6.8,4.1,2.4-1.6-1.9-4.9,6.5-6.7,2.6.4,2.6,2.4,1.6-4.8-2.3-4.3,1.4-4.4-2.1-4.7,7.8,2.4,1.6,4.2-3.5.9v4l2.2,2.4,4.3-1.5.7-4.6,5.9-3.5,9.8-6.5,2.1.4-2.8,4.6,3.5.8,2-2.6,5.2-.2,4.2-3.2,3.2,4.6,3.2-5.1-2.9-4.6,1.5-2.7,8.3,2.4,3.9,2.5,10.2,8.8,1.9-4-2.8-4.1-.1-1.7-3.4-.8.9-3.8-1.5-6.5-.1-2.7,5.2-8,1.8-8.4,2.1-1.9,7.4,2.5.6,5.2-2.7,7.3,1.7,2.8.9,5.9-.6,11.1,3.1,4.7-1.2,5L676,213.7l3.2,1,1.1-2.5,3.1-1.8.7-3.6,2.4-3.5-1.6-4.3,1.3-5.1-3.1-.6-.7-4.4,2.2-8.3-3.6-7,5-6-.7-6.6,1.4-.2,1.5,5.2-1.1,8.7,3,1.6-1.3-6.4,4.7-3.6,5.8-.5,5.2,5.2-2.5-7.6-.3-10.3,4.9-2,6.7.4,6.1-1.3-2.3-5.4,3.2-7,3.2-.3L729,132l7.4-1.5.9-3.2,7.4-1.1,2.3,2.6,6.3-6.2,5.2.2.8-5.2,2.7-5.3,6.6-5.3,4.8,4.2-3.8,3.1,6.3,1.9.8,6,2.6-2.9,8.2.2,6.3,5.8,2.2,4.4-.7,5.9-3.1,3.2-7.4,5.9-2.1,3.1,3.5,1.4,4.2,2.6,2.5-1.9,1.4,6.4,1.2-2.6,4.5-1.6,9,1.6.7,4.6,11.7,1.4.2-7.5,6,1.7,4.5-.1,4.5,5.1,1.3,6-1.7,3.8,3.5,7,4.4,3.5,2.7-9.2,4.5,4,4.8-2.4,5.4,2.7,2.1-2.5,4.6,1.2-2-8.4,3.7-4.1,25.3,6.1,2.4,5.4,7.3,6.6,11.3-1.6,5.6,1.4,2.3,3.5-.3,6,3.5,2.3,3.8-1.6,5-.2,5.3,1.6,5.3-.9,4.9,7,3.5-2.5-2.3-5.1,1.2-3.6,9,2.3,5.8-.5,8.1,3.8,3.9,3.4,6.9,5.9,7.3,7.3-.2,4.4,1.9,1.7-.7-5.1,7.6,1.1Zm-127.5,90.4-2.8-7.7-1.2-4.5.1-4.5-1-4.5-.7-3.1-1.2.7,1.1,2.2-2.6,2.2-.2,6.3,1.6,4.4-.1,5.9-.7,3.2.3,4.5-.3,4,.5,3.4,1.8-3.1,2.1,2.4.1-2.8-2.6-4.2,1.7-6.1Zm-343-27.4-2.9-.9-3.9,1.6-.6,2.1,3.5.5,5.2-.1-.2-1.2.3-1.3ZM980.5,179l3.7-.5,2.9-2.1.2-1.2-4.1-2.5h-2.4l-.4.4-3.6,3.6.5,2.7ZM870.6,152l-2.7,3.9.5.5,5.8,1.1,4.2-.1-.3-2.6-4-3.8Zm24.5-9.6,3.2-4.2-7-2.9-5.2-1.7-.7,3.6,5.2,4.3ZM870,140.7l10.3.3,2.2-8.1-10.1-6.1-7.4-.5-3.7,2.2-1.5,7.8,5.5,7Zm-247.1,26-2.9,2,.4,4.8,5.1,2.4.7,3.8,9.2,1.1,1.7-.7-5.4-7.1-.6-7.5,4.4-9.1,4.2-9.8,8.7-10.2,8.6-5.3,9.9-5.7,1.9-3.7-2-4.8-5.5,1.6-4.8,4.5-9.3,2.2-9.3,7.4-6.3,5.9.8,4.9-6.7,9,2.6,1.2-5.6,8.3Zm147.5-68,.8-5.7-7.1-8.3-2.1-1-2.3,1.7L754.6,104ZM606.1,69.41l3,3.9,3.3-2.7.4-2.7,2.5-1.3,3.8-2.2,1.1-2.6L616,58l-2.6,2.9L611.8,65l-.6-4.7-4.3.2-5.5,3.1,6.2.5Zm131.3,13.1,4.7,5.7,7.8,4.2,6.1-1.8.7-13.6-6.5-16-5.5-9-6.1,4.1-7.3,11.8,3.8,3.3Z" transform="translate(0 0)" style="fill: #e3e3e3;stroke: rgba(9,120,136,.5);"/>
    <path stroke-width="0.5" id="TR" d="M579.3,337l4,1.4,3.3-.6,2.4.3,3.3-1.9,3-.2,2.7,1.8.5,1.3-.3,1.8,2.1.9,1.1,1.1-1.9,1,.9,4.1-.5,1.1,1.5,2.8-1.3.6-1-.9-3.3-.5-1.2.5-3.2.5-1.5-.1-3.2,1.3h-2.3l-1.5-.7-3.1,1-.9-.7-.2,1.9-.8.8-.8.8-1-1.6,1.1-1.3-1.7.3-2.3-.8-1.9,2-4.3.4-2.3-1.9-3-.1-.7,1.4-1.9.4-2.7-1.9-3.1.1-1.7-3.5-2-2,1.4-2.8-1.8-1.7,3.1-3.5,4.3-.1,1.2-2.8,5.3.5,3.4-2.4,3.3-1.1,4.6-.1ZM552,339.4l-2.3,2-.9-1.7v-.8l.7-.4.9-2.3-1.4-1,2.9-1.2,2.4.5.3,1.4,2.5,1.2-.5.9-3.3.2Z" transform="translate(0 0)" style="fill: #e3e3e3;stroke: rgba(9,120,136,.5);"/>
    <path stroke-width="0.5" id="UZ" d="M662.3,351.41l.1-2.2-3.7-1.5-2.9-1.8-1.8-1.7-3.2-2.5-1.4-3.8-.9-.7-3,.2-1.1-.8-.3-3-3.8-2-2.4,2.2-2.4,1.3.5,1.9-3.2.1-.1-14.1,7.2-2.4.5.4,4.3,2.8,2.3,1.5,2.7,3.5,3.3-.6,4.8-.3,3.4,2.8-.2,3.8h1.4l.6,3.1,3.6.1.8,1.8h1l1.2-2.6,3.7-2.6,1.6-.7.8.4-2.3,2.4,2.1,1.4,2-.9,3.3,2-3.6,2.6-2.1-.4-1.2.1-.4-1,.6-1.7-3.8.9-.9,2.4-1.3,2-2.3-.2-.7,1.6,2.1.9.6,2.7-1.6,3.6-2.1-.7Z" transform="translate(0 0)" style="fill: #e3e3e3;stroke: rgba(9,120,136,.5);"/>
    <path stroke-width="0.5" id="VN" d="M778.7,402.31l-3.7,2.6-2.3,2.8-.6,2.1,2.1,3.1,2.6,3.8,2.5,1.8,1.7,2.3,1.3,5.3-.4,5-2.3,1.9-3.2,1.8-2.3,2.4-3.5,2.6-1-1.8.8-1.9-2.1-1.6,2.4-1.1,2.9-.2-1.2-1.7,4.7-2.2.3-3.4-.6-1.9.5-2.9-.7-2-2.1-2-1.8-2.6-2.3-3.5-3.4-1.8.8-1.1,1.8-.8-1.1-2.6H765l-1.3-2.7-1.6-2.4,1.5-.7h2.2l2.7-.4,2.4-1.6,1.3,1.1,2.6.6-.5,1.7,1.3,1.2Z" transform="translate(0 0)" style="fill: #e3e3e3;stroke: rgba(9,120,136,.5);"/>
    <path stroke-width="0.5" id="YE" d="M624.7,416.71l-2,.8-.5,1.3-.1,1-2.8,1.2-4.5,1.4-2.5,2-1.2.2-.8-.2-1.6,1.2-1.8.5-2.3.1-.7.2-.6.8-.7.2-.4.7-1.4-.1-.9.4-1.9-.1-.7-1.7.1-1.6-.5-.9-.5-2.1-.8-1.2.6-.1-.7-1.3.3-.6-.1-1.3,1.2-.9-.3-1.2.8-1.4,1.1.8.8-.3,3.2-.1.5.3,2.7.3,1.1-.2.7,1,1.3-.5,2-3.1,2.6-1.3,8.1-1.1,2.2,4.8Z" transform="translate(0 0)" style="fill: #e3e3e3;stroke: rgba(9,120,136,.5);"/>
  </g>
  <g class="continent" id="africa">
    <path stroke-width="0.5" id="AO" d="M521.5,480.21l.7,2.1.8,1.7.6.9,1.1,1.5,1.8-.2.9-.4,1.5.4.4-.7.7-1.6,1.7-.1.2-.5h1.4l-.2,1h3.4v1.8l.6,1.1-.4,1.7.2,1.7.9,1-.2,3.4.7-.3,1.2.1,1.7-.4,1.3.2.3.9-.3,1.4.5,1.3-.4,1.1.2,1H537l-.1,9.2,1.9,2.4,1.8,1.8-5.2,1.2-6.8-.4-1.9-1.4-11.4.1-.4.2-1.7-1.3-1.8-.1-1.7.5-1.4.6-.3-1.8.4-2.5,1-2.6.1-1.2.9-2.6.7-1.2,1.6-1.9.9-1.3.3-2.1-.2-1.6-.8-1-.8-1.7-.7-1.7.1-.6.9-1.1-.9-2.7-.6-1.9-1.4-1.8.3-.5,1.2-.4h.8l1-.3Zm-10.9-.6-.7.3-.8-2.1,1.1-1.2.9-.5,1,1-1,.6-.5.7Z" transform="translate(0 0)" style="fill: #e3e3e3;stroke: rgba(9,120,136,.5);"/>
    <path stroke-width="0.5" id="BF" d="M467.8,436.81l-1.9-.7-1.3.1-1,.7-1.3-.6-.5-.9-1.3-.6-.2-1.6.8-1.2-.1-1,2.2-2.4.4-2,.8-.7,1.4.4,1.2-.6.4-.7,2.2-1.3.5-.9,2.6-1.2,1.5-.4.7.5h1.8l-.2,1.4.4,1.3,1.6,1.9.1,1.4,3.2.6-.1,2-.6.9-1.4.3-.6,1.2-1,.3-2.5-.1-1.3-.2-.9.5-1.2-.2-4.9.1-.1,1.6Z" transform="translate(0 0)" style="fill: #e3e3e3;stroke: rgba(9,120,136,.5);"/>
    <path stroke-width="0.5" id="BI" d="M558,476.31l-.2-3.4-.7-1.3,1.7.2.9-1.6,1.5.2.2,1.1.6.6v.9l-.7.6-1.1,1.5-1,1Z" transform="translate(0 0)" style="fill: #e3e3e3;stroke: rgba(9,120,136,.5);"/>
    <path stroke-width="0.5" id="BJ" d="M483.3,446.31l-2.3.3-.7-1.9.1-6.5-.6-.6-.1-1.4-1-1-.8-.8.4-1.5,1-.3.6-1.2,1.4-.3.6-.9.9-.8h1l2.1,1.6-.1,1,.6,1.7-.5,1.1.3.8-1.4,1.8-.9.9-.5,1.8.1,1.8Z" transform="translate(0 0)" style="fill: #e3e3e3;stroke: rgba(9,120,136,.5);"/>
    <path stroke-width="0.5" id="BW" d="M547.7,516.41l.6.5.9,1.7,3.2,3.2,1.2.3v1l.8,1.9,2.2.5,1.8,1.4-4,2.2-2.5,2.3-.9,2-.8,1.1-1.5.2-.5,1.5-.3,1-1.8.7-2.3-.2-1.3-.9-1.2-.4-1.4.7-.7,1.5-1.3.9-1.4,1.4-2,.3-.6-1.1.3-1.9-1.7-2.9-.8-.5v-8.9l2.8-.1.1-10.6,2.1-.1,4.3-1,1.1,1.2,1.8-1.2h.9l1.6-.7.5.2Z" transform="translate(0 0)" style="fill: #e3e3e3;stroke: rgba(9,120,136,.5);"/>
    <path class="country" stroke-width="0.5" id="CD" data-index="3" d="M562.2,454l-.2,3.3,1.1.4-.9,1-1.1.7-1.1,1.5-.6,1.3-.2,2.2-.6,1.1v2.1l-.8.8-.1,1.7-.4.2-.3,1.5.7,1.3.2,3.4.5,2.6-.3,1.5.6,1.6,1.6,1.6,1.5,3.6-1.1-.3-3.8.5-.8.3-.6,1.5.6,1.2-.5,3.4-.4,2.9.8.5,2,1.1.8-.5.2,3.1h-2.2l-1.2-1.6-1-1.2-2.2-.4-.6-1.5-1.7.9-2.2-.4-.9-1.3-1.8-.3-1.3.1-.2-.9-1-.1-1.3-.2-1.7.4-1.2-.1-.7.3.2-3.4-.9-1-.2-1.7.4-1.7-.6-1.1v-1.8h-3.4l.2-1h-1.4l-.2.5-1.7.1-.7,1.7-.4.7-1.5-.4-.9.4-1.9.2-1.1-1.5-.6-.9-.8-1.7-.7-2.1h-8.3l-1,.3h-.8l-1.2.4-.4-.9.7-.3.1-1.2.5-.7,1-.6.7.3,1-1.1h1.5l.2.8,1,.5,1.6-1.8,1.6-1.4.7-.9-.1-2.3,1.2-2.7,1.3-1.4,1.9-1.3.3-.9.1-1,.5-1-.1-1.6.3-2.5.5-1.7.8-1.5.2-1.7.2-1.9,1.1-1.4,1.5-.9,2.3.9,1.8,1,2,.3,2.1.5.8-1.7.4-.2,1.3.3,3.1-1.4,1.1.6.9-.1.4-.7,1-.2,2.1.3,1.8.1.9-.3,1.7,2.3,1.3.3.8-.5,1.3.2,1.6-.6.7,1.2Z" transform="translate(0 0)" style="fill: #c4c4c4;stroke: rgba(9,120,136,.5);"/>
    <path class="country" stroke-width="0.5" id="CF" data-index="2" d="M518.6,443.11l2.3-.2.5-.7.5.1.7.6,3.5-1.1,1.2-1.1,1.5-1-.3-1,.8-.3,2.7.2,2.6-1.3,2-3.1,1.4-1.1,1.8-.5.3,1.2,1.6,1.8v1.1l-.5,1.2.2.9,1,.8,2.1,1.2,1.5,1.1v.9l1.9,1.5,1.2,1.2.7,1.7,2.1,1.1.5.9-.9.3-1.8-.1-2.1-.3-1,.2-.4.7-.9.1-1.1-.6-3.1,1.4-1.3-.3-.4.2-.8,1.7-2.1-.5-2-.3-1.8-1-2.3-.9-1.5.9-1.1,1.4-.2,1.9-1.8-.2-1.9-.5-1.7,1.5-1.5,2.6-.3-.8-.1-1.3-1.3-.9-1-1.4-.2-1-1.3-1.5.2-.8-.3-1.2.2-2.2.7-.5Z" transform="translate(0 0)" style="fill: #c4c4c4;stroke: rgba(9,120,136,.5);"/>
    <path stroke-width="0.5" id="CG" d="M512.2,477.11l-1-1-.9.5-1.1,1.2-2.3-2.9,2.1-1.5-1-1.9,1-.7,1.9-.3.2-1.2,1.5,1.3,2.5.1.9-1.3.4-1.9-.3-2.2-1.3-1.6,1.2-3.2-.7-.5-2.1.2-.8-1.4.2-1.2,3.5.1,2.3.7,2.2.7.2-1.5,1.5-2.6,1.7-1.5,1.9.5,1.8.2-.2,1.7-.8,1.5-.5,1.7-.3,2.5.1,1.6-.5,1-.1,1-.3.9-1.9,1.3-1.3,1.4-1.2,2.7.1,2.3-.7.9-1.6,1.4-1.6,1.8-1-.5-.2-.8h-1.5l-1,1.1Z" transform="translate(0 0)" style="fill: #e3e3e3;stroke: rgba(9,120,136,.5);"/>
    <path stroke-width="0.5" id="CI" d="M467.7,449.91h-1.3l-2-.5h-1.8l-3.3.5-1.9.8-2.8,1-.5-.1.2-2.3.3-.4-.1-1.1-1.2-1.2-.9-.2-.8-.8.6-1.2-.3-1.4.1-.8h.5l.2-1.2-.2-.5.3-.4,1-.3-.7-2.3-.6-1.1.2-1,.6-.2.4-.3.8.4h2.2l.5-.8.5.1.8-.3.4,1.2.6-.4,1.2-.4,1.3.6.5.9,1.3.6,1-.7,1.3-.1,1.9.7.7,4-1.2,2.4-.7,3.2,1.2,2.4Z" transform="translate(0 0)" style="fill: #e3e3e3;stroke: rgba(9,120,136,.5);"/>
    <path class="country" stroke-width="0.5" id="CM" data-index="1" d="M512.4,457.51l-.4-.1-1.7.4-1.7-.4-1.3.2-4.6-.1.4-2.2-1.1-1.8-1.3-.5-.6-1.2-.7-.4v-.8l.7-2,1.3-2.7h.8l1.7-1.6H505l1.6,1.1,1.9-.9.3-1.2.6-1.1.4-1.4,1.5-1.2.6-2,.6-.6.4-1.5.7-1.8,2.4-2.2.2-.9.3-.5-1.1-1.1.1-.9.8-.2,1.1,1.8.2,1.9-.1,1.9,1.5,2.6h-1.6l-.8.2-1.3-.3-.6,1.3,1.7,1.6,1.2.5.4,1.2.9,1.9-.4.8-1.4,2.8-.6.3-.2,2.2.3,1.2-.2.8,1.3,1.5.2,1,1,1.4,1.3.9.1,1.3.3.8-.2,1.5-2.2-.7-2.3-.7Z" transform="translate(0 0)" style="fill: #c4c4c4;stroke: rgba(9,120,136,.5);"/>
    <path stroke-width="0.5" id="DJ" d="M596.5,428.11l.7.9-.1,1.2-1.6.7,1.2.8-1,1.5-.6-.5-.7.2h-1.6V432l-.2-.8.9-1.3,1-1.3,1.2.2Z" transform="translate(0 0)" style="fill: #e3e3e3;stroke: rgba(9,120,136,.5);"/>
    <path stroke-width="0.5" id="DZ" d="M509.4,396.51l-9.6,5.8-8.1,5.9-4,1.3-3.1.3v-1.9l-1.3-.5-1.8-.9-.7-1.4-9.5-6.5-9.5-6.7-10.6-7.5.1-.6v-4l4.5-2.4,2.8-.5,2.3-.9,1.1-1.6,3.3-1.3.1-2.4,1.6-.3,1.3-1.2,3.7-.6.5-1.3-.7-.7-1-3.5-.2-2-1.1-2.2,2.7-1.9,3-.6L477,355l2.7-1,4.8-.6,4.6-.3,1.4.5,2.6-1.4h3l1.1.8,1.9-.2-.6,1.8.4,3.3-.7,2.8-1.7,1.9.2,2.5,2.3,2v.8l1.7,1.3,1.2,5.9.9,2.8.1,1.5-.5,2.6.2,1.4-.4,1.7.2,2-1.1,1.3,1.7,2.3.1,1.3,1,1.7,1.3-.6,2.2,1.4Z" transform="translate(0 0)" style="fill: #e3e3e3;stroke: rgba(9,120,136,.5);"/>
    <path stroke-width="0.5" id="EG" d="M573.7,377.71l-.8,1.3-.6,2.4-.8,1.6-.7.6-.9-1-1.3-1.4-2-4.6-.3.3,1.2,3.4,1.7,3.2,2.1,4.9,1,1.7.9,1.7,2.5,3.4-.6.5.1,2,3.3,2.7.5.6H545.7v-22.4l-.8-2.6.7-2-.4-1.4,1-1.6h3.7l2.7.9,2.8,1,1.3.5,2.2-1,1.2-.9,2.5-.3,2,.4.8,1.6.7-1.1,2.2.8,2.2.2,1.4-.8Z" transform="translate(0 0)" style="fill: #e3e3e3;stroke: rgba(9,120,136,.5);"/>
    <path stroke-width="0.5" id="EH" d="M439.1,383.51h0l-.1.1h0l-1.8,3.2-1.9,1.1-1,1.9-.1,1.6-.8,1.8-.9.5-1.6,1.9-1,2.1.2,1-.9,1.6-1.1.8-.1,1.4-.1,1.3.6-1h11l-.5-4.3.7-1.6,2.6-.3-.1-7.9,9.2.2v-4.5l.1-.6v-.2Z" transform="translate(0 0)" style="fill: #e3e3e3;stroke: rgba(9,120,136,.5);"/>
    <path stroke-width="0.5" id="ER" d="M594.5,428.61l-1-.9-1.1-1.7-1.2-.9-.7-1-2.4-1.1h-1.9l-.7-.6-1.6.7-1.7-1.3-.9,2.1-3.3-.6-.3-1.1,1.2-4.2.3-1.9.9-.9,2.1-.5,1.4-1.7,1.6,3.4.8,2.7,1.5,1.4,3.8,2.7,1.6,1.6,1.5,1.7.9,1,1.4.9-.8.7Z" transform="translate(0 0)" style="fill: #e3e3e3;stroke: rgba(9,120,136,.5);"/>
    <path stroke-width="0.5" id="ET" d="M582,421.61l1.7,1.3,1.6-.7.7.6h1.9l2.4,1.1.7,1,1.2.9,1.1,1.7,1,.9-1,1.3-.9,1.3.2.8v.9h1.6l.7-.2.6.5-.6,1,1,1.6,1,1.4,1.1,1,9.2,3.3h2.4l-7.9,8.4-3.7.1-2.5,2h-1.8l-.8.9H591l-1.1-.9-2.6,1.2-.8,1.2-1.9-.2-.6-.3-.7.1h-.9l-3.5-2.4h-2l-1-.9v-1.6l-1.5-.5-1.6-3-1.3-.7-.5-1.1-1.4-1.4-1.7-.2,1-1.6,1.5-.1.4-.9v-2.5l.8-3,1.3-.8.3-1.2,1.2-2.2,1.7-1.4,1.1-2.8.5-2.5,3.3.6Z" transform="translate(0 0)" style="fill: #e3e3e3;stroke: rgba(9,120,136,.5);"/>
    <path stroke-width="0.5" id="GA" d="M506.9,474.91l-2.9-2.8-1.9-2.3-1.7-2.9.1-.9.6-.9.7-2,.6-2.1,1-.2h4.1v-3.4l1.3-.2,1.7.4,1.7-.4.4.1-.2,1.2.8,1.4,2.1-.2.7.5-1.2,3.2,1.3,1.6.3,2.2-.4,1.9-.9,1.3-2.5-.1-1.5-1.3-.2,1.2-1.9.3-1,.7,1,1.9Z" transform="translate(0 0)" style="fill: #e3e3e3;stroke: rgba(9,120,136,.5);"/>
    <path stroke-width="0.5" id="GH" d="M478.7,447.21l-4.4,1.6-1.6,1-2.5.8-2.5-.8.1-1.1-1.2-2.4.7-3.2,1.2-2.4-.7-4-.4-2.1.1-1.6,4.9-.1,1.2.2.9-.5,1.3.2-.2.9,1.2,1.5v2l.3,2.2.7,1-.6,2.5.2,1.4.8,1.8Z" transform="translate(0 0)" style="fill: #e3e3e3;stroke: rgba(9,120,136,.5);"/>
    <path stroke-width="0.5" id="GM" d="M428.5,426.81l.4-1.3,3-.1.6-.7h.9l1.1.7h.9l.9-.5.6.8-1.2.6h-1.2l-1.2-.6-1,.7h-.5l-.7.4Z" transform="translate(0 0)" style="fill: #e3e3e3;stroke: rgba(9,120,136,.5);"/>
    <path stroke-width="0.5" id="GN" d="M452.1,442.31l-.8-.1-.6,1.1h-.8l-.5-.6.2-1.1-1.2-1.7-.7.3-.6.1-.8.2v-1l-.4-.7.1-.8-.6-1.2-.8-1h-2.2l-.6.5-.8.1-.5.6-.3.8-1.5,1.2-1.2-1.7-1.1-1.1-.7-.4-.7-.6-.3-1.2-.4-.6-.8-.5,1.2-1.4h.9l.7-.5h.6l.4-.4-.2-.9.3-.3v-1h1.4l2,.7.6-.1.2-.3,1.5.2.4-.2.2,1h.4l.7-.4.5.1.8.7,1.2.2.8-.6.9-.4.7-.4.6.1.6.6.3.8,1.1,1.2-.6.7-.1.9.6-.3.4.3-.1.8.9.8-.6.2-.2,1,.6,1.2.7,2.3-1,.3-.3.4.2.5-.2,1.2h-.5Z" transform="translate(0 0)" style="fill: #e3e3e3;stroke: rgba(9,120,136,.5);"/>
    <path stroke-width="0.5" id="GQ" d="M502.4,461l-.5-.4,1-3.1,4.6.1V461Z" transform="translate(0 0)" style="fill: #e3e3e3;stroke: rgba(9,120,136,.5);"/>
    <path stroke-width="0.5" id="GW" d="M433.3,432.81l-1.5-1.2-1.2-.2-.6-.8v-.4l-.8-.6-.2-.6,1.5-.5.9.1.8-.3,5.2.1v1l-.3.3.2.9-.4.4h-.6l-.7.5h-.9Z" transform="translate(0 0)" style="fill: #e3e3e3;stroke: rgba(9,120,136,.5);"/>
    <path stroke-width="0.5" id="KE" d="M590.7,466.21l1.7,2.3-2,1.1-.7,1.2-1.1.2-.4,2-.9,1.1-.5,1.9-1.1.9-4-2.8-.2-1.7-10.2-5.7-.5-.3v-3l.8-1.1,1.4-1.8,1-2-1.2-3.2-.3-1.4-1.3-1.9,1.7-1.7,1.9-1.8,1.5.5v1.6l1,.9h2l3.5,2.4h.9l.7-.1.6.3,1.9.2.8-1.2,2.6-1.2,1.1.9h1.9l-2.5,3.2Z" transform="translate(0 0)" style="fill: #e3e3e3;stroke: rgba(9,120,136,.5);"/>
    <path stroke-width="0.5" id="LR" d="M454.1,451.61h-.7l-2.9-1.3-2.5-2.1-2.4-1.5-1.9-1.8.7-.9.1-.8,1.3-1.5,1.3-1.3.6-.1.7-.3,1.2,1.7-.2,1.1.5.6h.8l.6-1.1.8.1-.1.8.3,1.4-.6,1.2.8.8.9.2,1.2,1.2.1,1.1-.3.4Z" transform="translate(0 0)" style="fill: #e3e3e3;stroke: rgba(9,120,136,.5);"/>
    <path stroke-width="0.5" id="LS" d="M557,548.21l1,1-.9,1.6-.5,1-1.6.5-.5,1-1,.3-2.1-2.5,1.5-2,1.5-1.2,1.3-.6Z" transform="translate(0 0)" style="fill: #e3e3e3;stroke: rgba(9,120,136,.5);"/>
    <path stroke-width="0.5" id="LY" d="M517.4,398.31l-2,1.1-1.6-1.7-4.4-1.3-1.2-1.9-2.2-1.4-1.3.6-1-1.7-.1-1.3-1.7-2.3,1.1-1.3-.2-2,.4-1.7L503,382l.5-2.6-.1-1.5-.9-2.8,1.4-.8.2-1.4-.3-1.4,1.9-1.3.9-1.1,1.4-.9.2-2.6,3.3,1.1,1.2-.3,2.3.6,3.7,1.5,1.3,2.9,2.5.6,4,1.4,3,1.6,1.4-.8,1.3-1.5-.6-2.5.9-1.6,2-1.6,1.9-.4,3.8.7,1,1.5h1l.9.6,2.8.4.7,1.1-1,1.6.4,1.4-.7,2,.8,2.6v28.4h-3.2v1.2l-11.2-5.7-11.2-5.8Z" transform="translate(0 0)" style="fill: #e3e3e3;stroke: rgba(9,120,136,.5);"/>
    <path stroke-width="0.5" id="MA" d="M451.5,383.51v-3.8l4.5-2.4,2.8-.5,2.3-.9,1.1-1.6,3.3-1.3.1-2.4,1.6-.3,1.3-1.2,3.7-.6.5-1.3-.7-.7-1-3.5-.2-2-1.1-2.2h-1.2l-2.9-.8-2.7.2-1.7-1.5h-2.1l-.9,2.1-1.9,3.5-2.1,1.4-2.8,1.5-1.8,2.2-.4,1.7-1.1,2.8.7,4-2.3,2.7-1.4.9-2.2,2.2-2.6.4-1.3,1.1h3.6l8.9.3h0l-8.8-.1h-3.6Z" transform="translate(0 0)" style="fill: #e3e3e3;stroke: rgba(9,120,136,.5);"/>
    <path stroke-width="0.5" id="MG" d="M614.7,498.81l.7,1.2.7,1.9.5,3.5.7,1.4-.3,1.4-.5.9-1-1.7-.5.9.5,2.1-.2,1.2-.8.7-.2,2.5-1.1,3.4-1.4,4.1-1.7,5.7-1.1,4.2-1.3,3.5-2.3.7-2.5,1.3-1.6-.8-2.2-1.1-.8-1.6-.2-2.7-1-2.4-.3-2.2.5-2.2,1.3-.5v-1l1.3-2.3.2-1.9-.6-1.4-.5-1.9-.2-2.7,1-1.6.4-1.8,1.4-.1,1.6-.6,1-.5h1.2l1.6-1.6,2.3-1.8.8-1.4-.4-1.2,1.2.4,1.6-2v-1.7l.9-1.3Z" transform="translate(0 0)" style="fill: #e3e3e3;stroke: rgba(9,120,136,.5);"/>
    <path stroke-width="0.5" id="ML" d="M441.6,422.61l.9-.5.5-1.7.9-.1,2,.8,1.6-.6,1.1.2.4-.6h11.2l.6-2-.5-.4L459,405l-1.4-13.1,4.3-.1,9.5,6.7,9.5,6.5.7,1.4,1.8.9,1.3.5v1.9l3.1-.3v6.8l-1.5,1.9-.2,1.8-2.5.4-3.8.2-1,1-1.8.1h-1.8l-.7-.5-1.5.4-2.6,1.2-.5.9-2.2,1.3-.4.7-1.2.6-1.4-.4-.8.7-.4,2-2.2,2.4.1,1-.8,1.2.2,1.6-1.2.4-.6.4-.4-1.2-.8.3-.5-.1-.8.9h-2.2l-.8-.4-.4.3-.9-.8.1-.8-.4-.3-.6.3.1-.9.6-.7-1.1-1.2-.3-.8-.6-.6-.6-.1-.7.4-.9.4-.8.6-1.2-.2-.8-.7-.5-.1-.7.4h-.4l-.2-1,.1-.9-.2-1.1-1-.8-.5-1.6Z" transform="translate(0 0)" style="fill: #e3e3e3;stroke: rgba(9,120,136,.5);"/>
    <path stroke-width="0.5" id="MR" d="M441.6,422.61l-1.9-2-1.7-2.1-1.9-.8-1.3-.9h-1.6l-1.4.6-1.4-.2-1,.9-.2-1.6.8-1.4.4-2.8-.3-2.9-.3-1.5.3-1.5-.7-1.4-1.5-1.3.6-1h11l-.5-4.3.7-1.6,2.6-.3-.1-7.9,9.2.2v-4.4l10.6,7.5-4.3.1,1.4,13.1,1.3,12.7.5.4-.6,2H449.1l-.4.6-1.1-.2-1.6.6-2-.8-.9.1-.5,1.7Z" transform="translate(0 0)" style="fill: #e3e3e3;stroke: rgba(9,120,136,.5);"/>
    <path stroke-width="0.5" id="MW" d="M572.7,496.11l-.8,2.2.8,3.7h1l1,.9,1.2,2.1.2,3.7-1.2.6-.9,2-1.8-1.8-.2-2,.6-1.4-.2-1.1-1.1-.7-.8.3-1.6-1.4-1.5-.7.9-2.7.9-1-.5-2.4.6-2.3.5-.8-.7-2.4-1.3-1.3,2.7.5.6.8,1,1.3Z" transform="translate(0 0)" style="fill: #e3e3e3;stroke: rgba(9,120,136,.5);"/>
    <path stroke-width="0.5" id="MZ" d="M572.7,496.11l2.1-.2,3.4.8.7-.4,2-.1,1-.8h1.7l3.1-1.1,2.2-1.6.5,1.3-.1,2.8.3,2.5.1,4.5.5,1.4-.8,2.1-1.1,2-1.8,1.8-2.6,1.1-3.2,1.4-3.2,3.2-1.1.5-2,2.1-1.2.7-.2,2.1,1.3,2.2.5,1.8v.9l.5-.1-.1,3-.5,1.4.7.5-.4,1.3-1.2,1.1-2.3,1-3.4,1.7-1.2,1.1.2,1.3.7.2-.2,1.6h-2.1l-.2-1.4-.4-1.4-.2-1.1.5-3.4-.7-2.2-1.3-4.3,2.9-3.4.7-2.2.4-.3.3-1.7-.5-.9.1-2.2.5-2V511l-1.4-.9-1.3-.2-.6-.7-1.3-.6-2.3.1-.2-1.1-.3-2,8.5-2.4,1.6,1.4.8-.3,1.1.7.2,1.1-.6,1.4.2,2,1.8,1.8.9-2,1.2-.6-.2-3.7-1.2-2.1-1-.9h-1l-.8-3.7Z" transform="translate(0 0)" style="fill: #e3e3e3;stroke: rgba(9,120,136,.5);"/>
    <path stroke-width="0.5" id="NA" d="M521.6,546.91l-2.1-2.4-1.1-2.3-.6-3-.7-2.2-.9-4.7-.1-3.6-.4-1.6-1.1-1.2-1.5-2.5-1.5-3.6L511,518l-2.3-2.9-.2-2.2,1.4-.6,1.7-.5,1.8.1,1.7,1.3.4-.2,11.4-.1,1.9,1.4,6.8.4,5.2-1.2,2.3-.7,1.8.2,1.1.7v.2l-1.5.5h-.9l-1.8,1.2-1.1-1.2-4.3,1-2.1.1-.1,10.6-2.8.1v20.4l-2.5,1.6-1.4.2-1.8-.6-1.3-.2-.5-1.4-1.1-.9Z" transform="translate(0 0)" style="fill: #e3e3e3;stroke: rgba(9,120,136,.5);"/>
    <path stroke-width="0.5" id="NE" d="M481.8,430.31l.1-2-3.2-.6-.1-1.4-1.6-1.9-.4-1.3.2-1.4,1.8-.1,1-1,3.8-.2,2.5-.4.2-1.8,1.5-1.9v-6.8l4-1.3,8.1-5.9,9.6-5.8,4.4,1.3,1.6,1.7,2-1.1.7,4.7,1,.8v.9l1.2,1-.6,1.3-1.1,6-.1,3.8-3.6,2.7-1.2,3.8,1.2,1.1v1.9l1.8.1-.3,1.3-.8.2-.1.9-.5.1-1.9-3.1-.7-.1-2.2,1.6-2.2-.8-1.5-.2-.8.4-1.7-.1-1.6,1.2-1.4.1-3.4-1.5-1.3.7h-1.4l-1.1-1.1-2.8-1.1-3,.3-.7.6-.4,1.6-.8,1.2-.2,2.5-2.1-1.6h-1Z" transform="translate(0 0)" style="fill: #e3e3e3;stroke: rgba(9,120,136,.5);"/>
    <path class="country" stroke-width="0.5" id="NG" data-index="4" d="M499.6,450.51l-2.9,1-1.1-.1-1.1.6-2.2-.1-1.5-1.8-.9-2-2-1.8h-4.6l.2-4.5-.1-1.8.5-1.8.9-.9,1.4-1.8-.3-.8.5-1.1-.6-1.7.1-1,.2-2.5.8-1.2.4-1.6.7-.6,3-.3,2.8,1.1,1.1,1.1h1.4l1.3-.7,3.4,1.5,1.4-.1,1.6-1.2,1.7.1.8-.4,1.5.2,2.2.8,2.2-1.6.7.1,1.9,3.1.5-.1,1.1,1.1-.3.5-.2.9-2.4,2.2-.7,1.8-.4,1.5-.6.6-.6,2-1.5,1.2-.4,1.4-.6,1.1-.3,1.2-1.9.9-1.6-1.1H504l-1.7,1.6h-.8l-1.3,2.7Z" transform="translate(0 0)" style="fill: #c4c4c4;stroke: rgba(9,120,136,.5);"/>
    <path stroke-width="0.5" id="RW" d="M561,466.91l1.1,1.6-.2,1.6-.8.3-1.5-.2-.9,1.6-1.7-.2.3-1.5.4-.2.1-1.7.8-.8.7.3Z" transform="translate(0 0)" style="fill: #e3e3e3;stroke: rgba(9,120,136,.5);"/>
    <path class="country" stroke-width="0.5" id="SD" data-index="5" d="M571,437.31h-.4v-1.4l-.3-1-1.4-1.1-.3-2.1.3-2.1-1.3-.2-.2.6-1.7.1.7.8.2,1.7-1.5,1.6-1.4,2-1.4.3-2.4-1.6-1.1.6-.3.9-1.4.5-.1.6h-2.8l-.4-.6-2-.1-1,.5-.8-.2-1.5-1.7-.5-.8-2,.4-.8,1.3-.7,2.5-1,.5-.9.3-.2-.1-1-.8-.2-.9.5-1.2v-1.1l-1.6-1.8-.3-1.2v-.7l-1-.8v-1.7l-.6-1.1-1,.2.3-1.1.7-1.2-.3-1.2.9-.9-.6-.7.7-1.8,1.3-2.1,2.4.2-.1-11.6v-1.2h3.2v-6H579l.9,2.9-.6.5.4,3.1,1,3.5,1.1.7,1.5,1.1-1.4,1.7-2.1.5-.9.9-.3,1.9-1.2,4.2.3,1.1-.5,2.5-1.1,2.8-1.7,1.4-1.2,2.2-.3,1.2-1.3.8-.8,3v.5Z" transform="translate(0 0)" style="fill: #c4c4c4;stroke: rgba(9,120,136,.5);"/>
    <path stroke-width="0.5" id="SL" d="M443.7,444.81l-.8-.2-2-1.1-1.5-1.5-.5-1-.4-2.1,1.5-1.2.3-.8.5-.6.8-.1.6-.5h2.2l.8,1,.6,1.2-.1.8.4.7v1l.8-.2-1.3,1.3-1.3,1.5-.1.8Z" transform="translate(0 0)" style="fill: #e3e3e3;stroke: rgba(9,120,136,.5);"/>
    <path stroke-width="0.5" id="SN" d="M428.9,425.61l-1.2-2.2-1.4-1,1.2-.5,1.4-2,.7-1.5,1-.9,1.4.2,1.4-.6H435l1.3.9,1.9.8,1.7,2.1,1.9,2,.1,1.8.5,1.6,1,.8.2,1.1-.1.9-.4.2-1.5-.2-.2.3-.6.1-2-.7h-1.4l-5.2-.1-.8.3-.9-.1-1.5.5-.5-2.2,2.5.1.7-.4h.5l1-.7,1.2.6h1.2l1.2-.6-.6-.8-.9.5h-.9l-1.1-.7h-.9l-.6.7Z" transform="translate(0 0)" style="fill: #e3e3e3;stroke: rgba(9,120,136,.5);"/>
    <path stroke-width="0.5" id="SO" d="M619.1,430.81l-.1-.8h-1.1l-1.3,1-1.5.3-1.3.4-.9.1-1.6.1-1,.5-1.4.2-2.5.9-3,.3-2.6.7h-1.4l-1.3-1.2-.5-1.2-.9-.5-1,1.5-.6,1,1,1.6,1,1.4,1.1,1,9.2,3.3h2.4l-7.9,8.4-3.7.1-2.5,2h-1.8l-.8.9-2.5,3.2v10.1l1.7,2.3.6-.7.7-1.5,3.1-3.4,2.6-2.1,4.2-2.8,2.8-2.3,3.3-3.8,2.4-3.1,2.4-4.1,1.7-3.6,1.3-3.1.8-3,.6-1v-1.5Z" transform="translate(0 0)" style="fill: #e3e3e3;stroke: rgba(9,120,136,.5);"/>
    <path stroke-width="0.5" id="SS" d="M571,437.31v2.2l-.4.9-1.5.1-1,1.6,1.7.2,1.4,1.4.5,1.1,1.3.7,1.6,3-1.9,1.8L571,452l-1.7,1.3h-2l-2.3.6-1.8-.6-1.1.8-2.5-1.9-.7-1.2-1.6.6-1.3-.2-.8.5-1.3-.3-1.7-2.3-.5-.9-2.1-1.1-.7-1.7-1.2-1.2-1.9-1.5V442l-1.5-1.1-1.9-1.1.9-.3,1-.5.7-2.5.8-1.3,2-.4.5.8,1.4,1.6.8.2,1-.5,2,.1.4.6h2.8l.1-.6,1.4-.5.3-.8,1.1-.6,2.4,1.6,1.4-.3,1.4-2,1.5-1.6-.2-1.7-.7-.8,1.7-.1.2-.6,1.3.2-.3,2.1.3,2.1,1.4,1.1.3,1v1.4Z" transform="translate(0 0)" style="fill: #e3e3e3;stroke: rgba(9,120,136,.5);"/>
    <path stroke-width="0.5" id="SZ" d="M565.7,541.11l-.6,1.4-1.6.3-1.7-1.7V540l.8-1.2.3-.9.8-.2,1.4.6.4,1.4Z" transform="translate(0 0)" style="fill: #e3e3e3;stroke: rgba(9,120,136,.5);"/>
    <path class="country" stroke-width="0.5" id="TD" data-index="6" d="M516.4,427.71l.3-1.3-1.8-.1v-1.9l-1.2-1.1,1.2-3.8,3.6-2.7.1-3.8,1.1-6,.6-1.3-1.2-1v-.9l-1-.8-.7-4.7,2.8-1.7,11.2,5.8,11.2,5.7.1,11.6-2.4-.2-1.3,2.1-.7,1.8.6.7-.9.9.3,1.2-.8,1.2-.3,1.1,1-.2.6,1.1v1.7l1,.8v.7l-1.8.5-1.4,1.1-2,3.1-2.6,1.3-2.7-.2-.8.3.3,1-1.5,1-1.2,1.1-3.5,1.1-.7-.6-.5-.1-.5.7-2.3.2.4-.8-.9-1.9-.4-1.2-1.2-.5-1.7-1.6.6-1.3,1.3.3.8-.2h1.6l-1.5-2.6.1-1.9-.2-1.9Z" transform="translate(0 0)" style="fill: #c4c4c4;stroke: rgba(9,120,136,.5);"/>
    <path stroke-width="0.5" id="TG" d="M481,446.61l-2.2.6-.6-1-.8-1.8-.2-1.4.6-2.5-.7-1-.3-2.2v-2l-1.2-1.5.2-.9,2.5.1-.4,1.5.8.8,1,1,.1,1.4.6.6-.1,6.5Z" transform="translate(0 0)" style="fill: #e3e3e3;stroke: rgba(9,120,136,.5);"/>
    <path stroke-width="0.5" id="TN" d="M502.3,375.11l-1.2-5.9-1.7-1.3v-.8l-2.3-2-.2-2.5,1.7-1.9.7-2.8-.4-3.3.6-1.8,3.1-1.4,2,.4-.1,1.8,2.4-1.3.2.7-1.4,1.7v1.6l1,.9-.4,3-1.9,1.7.5,1.8,1.5.1.7,1.6,1.1.5-.2,2.6-1.4.9-.9,1.1-1.9,1.3.3,1.4-.2,1.4Z" transform="translate(0 0)" style="fill: #e3e3e3;stroke: rgba(9,120,136,.5);"/>
    <path stroke-width="0.5" id="TZ" d="M570.8,466.41l.5.3,10.2,5.7.2,1.6,4,2.8-1.3,3.4.2,1.6,1.8,1,.1.7-.8,1.7.2.9-.2,1.3,1,1.8,1.2,2.8,1,.6-2.2,1.6-3.2,1.2h-1.7l-1,.8-2,.1-.7.4-3.4-.8-2.1.2-.8-3.9-1-1.3-.6-.8-2.7-.5-1.6-.9-1.8-.5-1.1-.5-1.2-.7-1.5-3.6-1.6-1.6-.6-1.6.3-1.5-.5-2.6,1.2-.1,1-1,1.1-1.5.7-.6V472l-.6-.6-.2-1.1.8-.3.2-1.6-1.1-1.6,1-.3h3.1Z" transform="translate(0 0)" style="fill: #e3e3e3;stroke: rgba(9,120,136,.5);"/>
    <path stroke-width="0.5" id="UG" d="M565.1,466.61H562l-1,.3-1.7.9-.7-.3v-2.1l.6-1.1.2-2.2.6-1.3,1.1-1.5,1.1-.7.9-1-1.1-.4.2-3.3,1.1-.8,1.8.6,2.3-.6h2l1.7-1.3,1.3,1.9.3,1.4,1.2,3.2-1,2-1.4,1.8-.8,1.1v3Z" transform="translate(0 0)" style="fill: #e3e3e3;stroke: rgba(9,120,136,.5);"/>
    <path stroke-width="0.5" id="ZA" d="M564.1,549.11l-.5.5-1.2,1.6-.8,1.7-1.6,2.3-3.2,3.4-2,2-2.1,1.5-2.9,1.3-1.4.2-.4.9-1.7-.5-1.4.6-3-.7-1.7.4-1.2-.2-2.9,1.3-2.4.5-1.7,1.3-1.3.1-1.2-1.2-1-.1-1.2-1.5-.1.5-.4-.9v-2l-.9-2.2.9-.6-.1-2.5-1.8-3-1.4-2.7h0l-2-4.2,1.3-1.6,1.1.9.5,1.4,1.3.2,1.8.6,1.5-.2,2.5-1.6v-11.5l.8.5,1.7,2.9-.3,1.9.6,1.1,2-.3,1.4-1.4,1.3-.9.7-1.5,1.4-.7,1.2.4,1.3.9,2.3.2,1.8-.7.3-1,.5-1.5,1.5-.2.8-1.2.9-2,2.5-2.3,4-2.2h1.1l1.4.5.9-.4,1.5.3,1.3,4.3.7,2.2-.5,3.4.2,1.1-1.4-.6-.8.2-.3.9-.8,1.2v1.1l1.7,1.7,1.6-.3.6-1.4h2.1l-.7,2.3-.3,2.6-.7,1.4Zm-7.1-.9-1.2-1-1.3.7-1.5,1.2-1.5,2,2.1,2.5,1-.3.5-1,1.6-.5.5-1,.9-1.6Z" transform="translate(0 0)" style="fill: #e3e3e3;stroke: rgba(9,120,136,.5);"/>
    <path stroke-width="0.5" id="ZM" d="M567.6,489.61l1.3,1.3.7,2.4-.5.8-.6,2.3.5,2.4-.9,1-.9,2.7,1.5.7-8.5,2.4.3,2-2.1.4-1.6,1.2-.3,1-1,.2-2.4,2.4-1.5,1.9-1,.1-.9-.3-3.1-.3-.5-.2v-.2l-1.1-.7-1.8-.2-2.3.7-1.8-1.8-1.9-2.4.1-9.2h5.8l-.2-1,.4-1.1-.5-1.3.3-1.4-.3-.9,1,.1.2.9,1.3-.1,1.8.3.9,1.3,2.2.4,1.7-.9.6,1.5,2.2.4,1,1.2,1.2,1.6h2.2l-.2-3.1-.8.5-2-1.1-.8-.5.4-2.9.5-3.4-.7-1.3.8-1.8.8-.3,3.8-.5,1.1.3,1.2.7,1.1.5,1.8.5Z" transform="translate(0 0)" style="fill: #e3e3e3;stroke: rgba(9,120,136,.5);"/>
    <path stroke-width="0.5" id="ZW" d="M563.2,527.41l-1.5-.3-.9.4-1.4-.5h-1.1l-1.8-1.4-2.2-.5-.8-1.9v-1l-1.2-.3-3.2-3.2-.9-1.7-.6-.5-1.1-2.4,3.1.3.9.3,1-.1,1.5-1.9,2.4-2.4,1-.2.3-1,1.6-1.2,2.1-.4.2,1.1,2.3-.1,1.3.6.6.7,1.3.2,1.4.9v3.7l-.5,2-.1,2.2.5.9-.3,1.7-.4.3-.7,2.2Z" transform="translate(0 0)" style="fill: #e3e3e3;stroke: rgba(9,120,136,.5);"/>
  </g>
</svg>
